<?xml version="1.0" standalone="no"?>
<!DOCTYPE svg PUBLIC "-//W3C//DTD SVG 20010904//EN"
 "http://www.w3.org/TR/2001/REC-SVG-20010904/DTD/svg10.dtd">
<svg version="1.0" xmlns="http://www.w3.org/2000/svg"
 width="300.000000pt" height="190.000000pt" viewBox="0 0 300.000000 190.000000"
 preserveAspectRatio="xMidYMid meet">
<metadata>
Created by potrace 1.16, written by Peter Selinger 2001-2019
</metadata>
<g transform="translate(0.000000,190.000000) scale(0.100000,-0.100000)"
fill="#000000" stroke="none">
<path d="M1166 1872 l-19 -27 29 25 c24 21 26 21 10 3 -10 -12 -22 -41 -26
-64 -7 -38 -5 -45 20 -71 28 -27 79 -41 64 -16 -4 7 -3 8 4 4 7 -4 17 -17 22
-29 11 -21 11 -21 -4 -3 -22 27 -20 19 9 -38 19 -38 22 -52 13 -58 -9 -5 -8
-8 5 -8 21 0 21 1 1 48 -8 20 -11 33 -5 27 5 -5 16 -27 25 -47 15 -37 14 -38
-7 -38 -12 0 -33 -3 -47 -5 -22 -5 -22 -4 -5 4 28 13 5 13 -33 0 -18 -6 -30
-15 -27 -19 3 -4 -2 -11 -11 -14 -9 -4 -13 -2 -8 5 4 7 1 10 -7 7 -8 -3 -13
-10 -12 -16 2 -6 -3 -9 -11 -6 -17 6 -105 -74 -130 -117 l-18 -34 25 30 c23
27 22 23 -8 -37 -56 -111 -56 -224 -1 -333 17 -32 19 -42 8 -33 -33 26 28 -49
72 -90 44 -40 75 -56 60 -30 -4 8 -3 10 2 5 5 -5 9 -14 9 -20 0 -21 97 -46
180 -46 83 0 190 31 190 56 0 6 4 15 9 20 5 5 6 3 2 -4 -11 -19 9 -16 25 4 10
11 10 14 2 9 -24 -14 -13 0 34 44 l48 45 -40 -44 c-22 -24 -35 -42 -29 -40 28
9 125 149 124 176 -1 4 -12 -13 -26 -39 -34 -66 -39 -60 -7 8 25 55 48 214 31
214 -4 0 -8 5 -8 12 0 7 24 -12 54 -41 81 -80 86 -73 86 102 0 154 12 222 54
305 14 27 32 55 42 63 11 9 15 9 10 2 -18 -31 51 -2 76 31 14 20 15 30 7 62
-6 22 -16 46 -22 54 -7 9 -2 5 11 -8 12 -13 22 -19 22 -14 0 5 -10 18 -22 30
-22 19 -33 21 -188 19 l-165 -2 0 -35 0 -35 143 -3 c83 -1 142 -7 142 -12 0
-14 -707 -13 -715 0 -4 6 43 10 135 10 l140 0 10 25 c20 53 12 56 -169 54
l-166 -1 -19 -26z m109 -362 c-17 -7 -17 -9 -2 -9 15 -1 17 -14 17 -122 l0
-120 -37 3 c-32 3 -38 7 -41 28 -3 31 -53 172 -58 167 -2 -2 6 -33 19 -68 14
-35 27 -84 30 -109 5 -43 5 -43 -5 -10 -5 19 -19 62 -29 95 -27 82 -28 101 -5
97 10 -2 15 1 12 7 -4 5 -1 13 5 17 8 4 9 3 5 -4 -11 -19 12 -14 31 7 20 20
40 29 63 30 9 0 8 -4 -5 -9z m161 -4 c3 -7 23 -21 45 -31 21 -10 39 -20 39
-21 0 -2 -11 -37 -25 -78 -14 -41 -25 -84 -25 -95 0 -18 -6 -21 -40 -21 l-40
0 0 130 c0 124 1 130 20 130 11 0 23 -6 26 -14z m-232 -358 c-4 -24 -17 -72
-30 -108 -13 -35 -22 -66 -20 -67 6 -7 46 103 54 147 7 43 9 45 45 48 l37 3 0
-120 c0 -137 0 -137 -79 -101 -51 23 -54 24 -45 8 4 -7 0 -6 -9 2 -15 14 -14
21 8 85 13 39 27 87 30 108 3 20 8 37 11 37 2 0 1 -19 -2 -42z m320 -119 c13
-33 22 -59 20 -59 -6 0 -37 64 -50 105 -7 22 -13 32 -13 22 -1 -10 6 -34 15
-55 32 -75 34 -81 22 -88 -7 -5 -8 -3 -3 6 5 8 3 11 -6 8 -8 -3 -14 -11 -14
-18 0 -7 -7 -15 -15 -17 -13 -4 -13 -3 0 6 20 14 13 13 -40 -4 -38 -13 -40
-15 -11 -10 41 6 37 -2 -7 -14 l-30 -9 -1 134 -2 134 40 0 c36 0 40 -3 44 -27
3 -22 5 -20 7 12 2 40 2 40 11 -14 5 -29 20 -80 33 -112z"/>
<path d="M2000 708 c0 -7 -12 -38 -26 -69 -24 -51 -29 -56 -42 -43 -8 8 -17
12 -20 9 -4 -3 0 -11 8 -16 12 -9 12 -10 -2 -5 -10 3 -18 0 -18 -6 0 -6 -3 -8
-6 -5 -4 4 1 18 10 31 24 38 20 51 -25 71 -49 22 -64 16 -96 -41 -21 -37 -25
-39 -80 -45 l-58 -6 60 -3 60 -3 -77 -6 c-43 -4 -81 -10 -85 -14 -14 -15 26
-39 78 -47 47 -6 49 -8 19 -10 -33 -3 -33 -3 -7 -7 21 -3 27 -9 23 -20 -3 -8
-8 -27 -11 -41 -3 -15 4 -3 16 26 36 92 29 52 -14 -78 -27 -82 -47 -125 -56
-125 -8 0 -16 -6 -19 -14 -3 -8 0 -11 7 -7 23 15 9 -1 -51 -59 l-63 -60 50 54
50 55 -54 -47 c-58 -51 -71 -56 -71 -29 0 43 11 59 41 59 16 0 35 5 42 12 9
10 6 10 -17 1 -22 -8 -32 -8 -40 1 -8 9 -8 10 2 5 7 -4 26 -1 42 8 17 8 27 10
24 4 -4 -6 -1 -9 5 -7 7 3 11 7 10 9 -1 3 12 30 30 61 38 68 39 97 5 141 l-26
33 31 -33 c17 -18 31 -29 31 -24 0 10 -63 72 -74 72 -4 0 -4 -5 0 -12 4 -7 3
-8 -5 -4 -6 4 -9 11 -6 16 6 9 -25 30 -44 30 -14 0 -79 -58 -92 -83 -6 -11 9
1 33 27 43 45 70 57 83 36 3 -6 -1 -7 -10 -4 -42 16 -102 -64 -152 -201 -17
-50 -32 -83 -32 -76 -1 8 -15 -6 -31 -33 -17 -26 -35 -44 -40 -41 -6 3 -7 -1
-4 -10 5 -12 13 -6 36 25 16 22 32 40 34 40 3 0 -9 -20 -27 -45 -34 -48 -48
-48 -54 1 -3 23 6 39 38 74 l42 45 -45 -40 -44 -40 46 51 c82 91 96 144 56
204 -39 56 -52 59 -92 21 l-35 -34 18 49 c32 82 71 167 76 163 2 -3 -9 -32
-24 -64 -16 -33 -32 -71 -36 -85 -7 -22 -6 -23 8 -11 9 7 14 17 11 22 -3 5 11
40 30 79 l34 70 -30 25 c-17 15 -37 24 -45 21 -8 -4 -21 -6 -29 -6 -17 0 -57
-83 -99 -205 -28 -80 -48 -119 -39 -74 5 22 4 22 -11 -3 -8 -16 -18 -28 -21
-28 -3 0 -2 5 2 11 3 6 -7 25 -22 42 l-29 32 35 -30 35 -30 -30 33 c-27 30
-95 76 -82 55 3 -4 -10 -8 -28 -8 -18 0 -31 3 -28 8 12 20 -17 3 -43 -25 l-29
-33 30 25 30 25 -32 -35 c-37 -41 -53 -78 -53 -124 0 -19 -14 -56 -36 -92 -40
-66 -64 -95 -64 -76 0 7 3 12 8 12 4 0 8 15 9 33 1 19 18 76 38 128 51 131 53
142 20 157 -15 7 -30 10 -33 7 -3 -3 -1 -5 4 -5 6 0 19 -7 30 -15 15 -12 11
-11 -23 2 -23 9 -40 20 -37 24 3 5 3 9 0 9 -3 0 -13 -15 -21 -32 -8 -18 -13
-24 -10 -13 5 16 4 17 -6 8 -9 -9 -19 -9 -42 3 -16 9 -38 14 -48 11 -12 -3
-17 -1 -13 6 15 27 -15 -11 -50 -61 -45 -68 -87 -196 -94 -290 -4 -64 -2 -77
17 -105 l22 -32 -25 28 c-22 24 -26 38 -26 88 0 33 -4 59 -10 59 -27 0 1 -124
36 -161 26 -28 52 -40 39 -19 -4 7 3 7 20 0 15 -6 28 -10 30 -10 2 0 18 20 35
45 17 25 27 45 21 45 -5 0 -12 -9 -16 -19 -3 -11 -12 -24 -20 -31 -7 -6 -1 12
13 39 18 34 28 45 31 33 1 -9 10 -26 20 -36 9 -11 10 -16 4 -12 -16 9 -17 -6
-1 -22 16 -16 31 -15 22 0 -4 8 -3 10 2 5 5 -5 9 -14 9 -20 0 -24 32 -16 60
15 l30 33 -31 -27 c-45 -42 -45 -34 0 16 l41 44 13 -31 c7 -17 21 -40 30 -52
16 -19 16 -19 -1 -6 -10 8 -25 28 -33 44 -9 16 -18 26 -21 23 -4 -3 7 -23 23
-43 26 -32 36 -37 79 -39 49 -2 51 -1 103 54 29 31 52 65 52 76 0 12 -9 39
-20 61 -11 22 -18 31 -14 20 22 -71 22 -74 2 -114 -11 -22 -27 -46 -35 -53 -9
-7 -4 6 12 30 31 48 34 85 10 132 -9 18 -12 30 -7 26 5 -3 22 9 38 27 28 31
28 31 2 8 -39 -34 -39 -22 0 18 17 18 30 27 27 19 -4 -9 0 -15 10 -15 11 0 15
6 12 19 -3 10 -1 16 4 12 5 -3 9 0 9 7 0 7 2 10 4 8 3 -2 -6 -46 -20 -98 -28
-109 -30 -152 -8 -186 9 -14 14 -25 11 -25 -3 0 -14 15 -26 33 -11 17 -21 27
-21 22 0 -14 59 -85 71 -85 6 0 7 4 4 10 -3 6 1 7 9 4 12 -5 16 1 16 26 0 17
5 51 11 76 l12 45 19 -43 c10 -24 34 -59 51 -78 l32 -35 -40 35 -40 35 33 -36
c51 -56 118 -44 154 26 6 11 -4 4 -22 -15 l-31 -35 27 40 c16 22 29 41 29 42
0 1 14 -15 30 -35 l28 -37 -29 25 -29 25 25 -28 c37 -42 55 -49 95 -38 21 6
33 6 30 0 -16 -25 15 -4 50 33 l40 43 -40 -35 -40 -35 34 37 c19 21 39 34 44
31 6 -4 8 0 4 10 -3 9 -2 19 3 22 6 4 10 -3 10 -14 0 -11 14 -37 31 -58 l32
-38 -37 37 c-20 21 -36 34 -36 30 0 -5 15 -22 33 -39 32 -31 85 -41 79 -15 -1
7 3 11 9 10 6 -2 14 3 17 11 3 9 0 11 -7 6 -7 -4 0 11 16 33 28 39 28 39 35
14 4 -14 17 -37 30 -52 13 -14 6 -8 -14 13 -21 22 -38 35 -38 30 0 -5 18 -26
39 -47 39 -38 60 -41 62 -8 0 11 2 12 6 4 2 -6 9 -10 14 -6 5 3 8 0 7 -8 -5
-24 73 -20 101 5 30 28 81 97 81 110 0 6 -13 -9 -28 -34 -16 -24 -40 -53 -53
-64 -13 -11 -7 0 14 24 33 39 97 172 97 201 0 6 5 8 10 5 6 -3 10 -13 10 -21
0 -8 -3 -13 -7 -11 -16 10 -14 -143 2 -173 9 -17 13 -30 11 -30 -3 0 -13 14
-22 32 -12 24 -15 47 -11 92 6 58 6 59 -7 30 -9 -20 -11 -45 -7 -70 14 -74 48
-113 97 -110 33 1 67 23 58 37 -2 5 4 25 15 46 11 21 20 33 21 26 0 -7 14 -29
32 -50 l32 -38 -34 30 -35 30 34 -38 c19 -20 42 -37 51 -37 17 0 60 39 60 54
0 5 -9 -2 -21 -15 -11 -13 -8 -5 8 18 25 37 29 39 36 21 4 -11 16 -34 28 -52
l21 -31 -26 30 c-14 17 -26 33 -26 38 0 4 -5 7 -11 7 -6 0 3 -18 20 -39 46
-58 77 -53 141 24 31 37 29 36 -21 -10 l-54 -50 50 53 c48 51 51 52 65 33 8
-10 27 -35 42 -54 33 -43 61 -45 101 -8 68 62 197 245 197 280 0 9 -11 -6 -24
-34 -28 -59 -94 -150 -160 -220 -34 -35 -29 -28 15 25 71 85 137 183 146 218
3 13 0 29 -6 35 -8 8 -11 7 -11 -6 0 -9 -42 -61 -94 -114 l-94 -98 10 50 c6
29 22 63 39 82 37 42 98 133 144 213 20 36 34 56 31 45 -12 -35 -99 -175 -149
-237 -28 -35 -46 -67 -44 -76 4 -15 5 -15 6 0 0 10 22 44 49 77 26 32 70 96
97 142 47 78 50 87 51 156 l1 73 -43 40 c-24 22 -50 40 -57 40 -20 0 -87 -83
-87 -107 0 -4 14 13 30 40 17 26 32 47 35 47 3 0 -7 -19 -22 -42 -39 -63 -86
-170 -123 -283 -33 -100 -48 -130 -58 -120 -3 3 -26 -14 -50 -37 -25 -24 -42
-35 -38 -25 3 9 9 24 13 34 4 10 2 14 -4 10 -6 -4 -16 -30 -23 -58 -7 -27 -14
-48 -17 -46 -11 12 22 95 51 127 17 19 51 65 75 102 24 37 48 65 54 61 5 -3 7
0 5 8 -3 8 8 41 24 74 15 33 28 67 28 76 0 9 -14 36 -31 60 -18 27 -21 34 -7
19 13 -14 31 -37 40 -50 9 -14 17 -20 17 -15 1 17 -81 106 -93 102 -6 -2 -20
0 -31 5 -18 8 -18 8 3 4 12 -2 20 0 16 5 -21 34 -83 -34 -136 -148 -21 -46
-38 -89 -38 -96 0 -6 18 29 40 78 22 50 51 104 65 120 19 23 17 17 -8 -26 -38
-65 -108 -236 -133 -325 -9 -33 -25 -71 -35 -85 -12 -15 -17 -17 -13 -6 3 9 1
17 -5 17 -6 0 -11 -4 -11 -9 0 -5 -3 -17 -7 -27 -5 -12 -3 -15 6 -9 8 4 6 -4
-4 -19 -10 -14 -19 -26 -20 -26 -10 0 44 178 75 247 21 47 25 64 16 74 -6 8
-3 7 8 -1 13 -10 17 -10 12 -3 -4 7 -16 18 -28 24 -15 8 -19 8 -14 0 5 -8 -1
-8 -20 -1 -15 6 -35 8 -43 4 -22 -9 -60 -11 -55 -3 2 4 -3 10 -12 13 -8 3 -13
2 -10 -3 3 -4 -6 -6 -19 -3 -25 4 -65 -28 -108 -88 -18 -25 -18 -25 -1 5 25
45 56 76 89 91 22 10 25 13 10 14 -11 0 -42 -24 -72 -56 l-53 -56 -11 26 c-7
14 -24 33 -38 43 -25 16 -26 16 -11 -3 14 -17 13 -18 -1 -6 -9 7 -14 22 -12
35 2 12 -3 31 -12 42 -16 19 -16 19 -5 -3 15 -30 6 -52 -19 -52 -11 0 -31 -15
-46 -32 l-26 -33 16 39 c17 43 25 55 25 39 0 -6 11 -8 25 -5 29 5 30 12 10 52
-14 28 -14 33 5 70 27 54 26 64 -15 83 -42 20 -65 22 -65 5z m-135 -220 c-5
-18 -4 -19 4 -8 23 34 18 -3 -13 -96 -18 -54 -37 -108 -41 -119 l-7 -20 14 20
c8 11 27 61 42 110 16 50 35 101 43 115 7 14 12 18 9 10 -3 -8 -19 -60 -37
-115 -21 -66 -47 -121 -76 -162 -43 -61 -67 -87 -58 -61 2 7 21 65 41 128 44
139 74 220 80 220 3 0 2 -10 -1 -22z"/>
<path d="M302 690 c90 -9 97 -19 11 -13 -41 3 -89 -1 -120 -10 -55 -15 -70
-13 -30 3 12 5 15 9 7 9 -22 1 -122 -47 -148 -71 -26 -25 -28 -68 -6 -113 8
-16 11 -21 8 -10 -17 55 -16 101 2 115 16 12 17 12 6 0 -16 -18 -15 -53 2
-110 l13 -45 17 33 c9 17 19 32 22 32 2 0 -1 -10 -7 -22 -12 -23 -12 -23 9 -4
12 10 19 22 17 27 -3 4 0 11 6 15 8 4 9 3 5 -4 -15 -25 40 0 62 27 7 9 3 -9
-9 -39 -12 -30 -34 -87 -49 -127 -15 -39 -25 -74 -22 -77 3 -3 0 -6 -7 -6 -9
0 -11 -8 -7 -25 3 -14 -1 -54 -10 -91 -14 -54 -19 -63 -30 -52 -7 7 -14 28
-16 46 -4 59 -23 26 -24 -44 -2 -57 2 -73 19 -91 22 -25 43 -31 31 -10 -4 7
-3 9 2 4 5 -5 9 -14 9 -20 0 -19 252 -19 288 0 15 7 25 18 22 23 -3 5 0 12 6
16 8 4 9 3 5 -4 -14 -23 11 -12 38 17 24 25 29 39 30 86 1 48 -2 59 -25 81
-17 16 -32 23 -40 19 -8 -6 -10 -4 -4 5 6 10 4 12 -8 7 -10 -3 -17 -3 -17 2 0
5 9 11 20 14 11 3 18 1 14 -4 -7 -12 3 -11 27 2 11 5 17 14 14 19 -3 6 0 7 8
4 8 -3 20 3 28 13 13 17 13 17 -6 3 -11 -8 1 8 27 36 75 83 76 148 5 231 -40
47 -40 47 -4 14 69 -65 84 -143 41 -209 -10 -15 -17 -34 -16 -42 2 -12 1 -12
-6 -2 -7 10 -12 9 -23 -4 -12 -16 -12 -17 4 -11 21 8 21 8 1 -59 -8 -30 -13
-60 -11 -67 3 -7 6 -5 6 5 2 42 55 181 87 230 19 29 26 42 15 29 l-21 -23 0
27 c0 15 -7 42 -16 60 -21 45 -111 128 -129 121 -8 -3 -14 0 -12 6 3 17 -63
37 -123 36 l-55 -1 67 -7z m102 -125 c18 -18 30 -20 20 -2 -4 6 2 3 14 -7 39
-34 29 -71 -34 -134 -31 -32 -53 -51 -49 -44 9 17 4 16 -50 -14 l-47 -27 7 24
c11 36 65 142 82 161 11 12 11 18 2 24 -8 5 -10 3 -4 -7 5 -8 -5 -3 -21 11
-16 14 -31 26 -33 28 -2 1 19 2 47 2 32 0 56 -6 66 -15z m-108 -350 c4 -8 10
-15 16 -15 5 0 6 6 2 13 -5 8 -2 8 9 -2 25 -20 21 -54 -10 -82 -14 -13 -23
-18 -18 -10 6 11 4 13 -11 7 -42 -18 -88 -27 -105 -23 -10 3 -20 0 -22 -7 -2
-6 -2 3 1 19 2 17 11 44 18 60 8 17 12 21 9 10 -14 -65 -13 -74 3 -30 18 48
20 50 63 56 l44 5 -35 5 -35 6 33 1 c21 1 35 -3 38 -13z"/>
</g>
</svg>
