<?xml version="1.0" standalone="no"?>
<!DOCTYPE svg PUBLIC "-//W3C//DTD SVG 20010904//EN"
 "http://www.w3.org/TR/2001/REC-SVG-20010904/DTD/svg10.dtd">
<svg version="1.0" xmlns="http://www.w3.org/2000/svg"
 width="300.000000pt" height="298.000000pt" viewBox="0 0 300.000000 298.000000"
 preserveAspectRatio="xMidYMid meet">
<metadata>
Created by potrace 1.16, written by Peter Selinger 2001-2019
</metadata>
<g transform="translate(0.000000,298.000000) scale(0.100000,-0.100000)"
fill="#000000" stroke="none">
<path d="M13 2972 c-16 -10 -17 -740 -1 -759 8 -10 45 -13 150 -12 108 1 136
4 123 12 -12 9 7 11 82 7 l98 -4 -80 -6 -80 -6 75 -2 c79 -2 123 5 115 18 -3
4 2 11 11 14 9 4 13 2 8 -5 -4 -7 -1 -10 7 -7 8 3 13 10 12 16 -2 6 4 9 13 5
20 -7 69 39 97 92 17 32 22 58 22 130 0 50 -1 80 -3 68 -3 -19 -7 -17 -44 23
-26 28 -44 41 -48 34 -5 -8 -10 -6 -14 6 -4 9 -2 22 4 28 8 8 9 5 5 -9 -6 -17
-3 -16 14 5 77 90 74 189 -8 283 -58 65 -110 77 -344 77 -111 0 -207 -4 -214
-8z m275 -464 c-10 -6 -8 -8 5 -8 9 0 17 3 17 8 0 4 16 7 35 8 24 0 31 -2 23
-9 -8 -5 -3 -6 15 -2 21 4 27 3 21 -6 -5 -8 -2 -10 8 -7 12 5 14 0 10 -20 -10
-57 -26 -67 -107 -69 -43 0 -73 3 -69 8 3 5 1 9 -5 9 -5 0 -12 -6 -14 -12 -3
-7 -6 13 -6 44 -1 60 3 65 52 65 18 0 23 -3 15 -9z"/>
<path d="M910 2962 c-47 -19 -91 -52 -85 -62 3 -5 0 -12 -6 -16 -8 -4 -9 -3
-5 4 12 20 -10 13 -29 -8 -10 -11 -15 -23 -12 -26 4 -4 -6 -23 -22 -43 -16
-20 -31 -45 -34 -56 -4 -18 -5 -18 -6 -1 0 10 13 37 30 60 l31 41 -35 -39
c-25 -28 -36 -52 -41 -85 -3 -25 -9 -67 -14 -94 -16 -88 25 -234 80 -283 10
-10 18 -23 18 -31 0 -8 12 -25 28 -38 29 -26 48 -33 36 -12 -4 7 -3 9 2 4 5
-5 9 -14 9 -20 0 -7 7 -12 15 -12 8 0 23 -8 33 -17 9 -10 25 -18 35 -17 13 0
12 2 -5 9 -13 5 -23 12 -23 14 0 3 12 1 28 -5 15 -6 47 -15 72 -20 l45 -8 -49
3 c-30 3 -44 1 -35 -5 19 -12 86 -11 94 1 3 6 24 10 46 10 22 0 50 5 62 11 22
10 22 10 2 -7 -18 -15 -18 -16 -2 -10 10 3 23 6 28 6 6 0 7 5 3 12 -5 8 -2 9
10 5 22 -9 54 7 85 41 13 15 20 20 15 12 -7 -13 -5 -13 9 -1 9 7 15 17 12 21
-3 5 0 12 6 16 8 4 9 3 5 -4 -4 -7 -3 -12 3 -12 24 0 122 149 121 184 0 6 -14
-16 -30 -49 -16 -33 -41 -73 -56 -90 l-26 -30 20 30 c46 71 75 133 82 175 l8
45 1 -37 c0 -21 5 -38 10 -38 5 0 7 34 4 78 -3 53 0 92 11 126 8 27 11 45 7
40 -13 -15 -31 -75 -32 -108 0 -17 -7 2 -14 43 -8 40 -18 78 -24 84 -6 6 -11
19 -11 29 0 24 -40 79 -52 72 -5 -3 -7 0 -6 8 2 7 -3 12 -9 10 -7 -1 -12 3
-10 9 1 6 -4 14 -12 17 -9 3 -11 0 -6 -9 5 -8 -1 -5 -13 5 -26 23 -30 34 -4
15 16 -13 16 -12 3 4 -8 10 -33 28 -55 40 -35 18 -60 21 -176 22 -96 1 -145
-3 -170 -13z m95 -202 c-4 -6 11 -7 39 -4 59 9 127 -16 162 -59 l26 -32 -22
40 c-14 25 -15 33 -5 20 29 -33 55 -98 55 -135 0 -43 -35 -121 -52 -118 -6 2
-12 -4 -13 -12 0 -8 -7 -15 -15 -16 -28 -1 -70 -16 -65 -24 3 -4 -2 -10 -10
-14 -8 -3 -15 -1 -15 4 0 13 -33 13 -47 -1 -7 -7 -18 -3 -38 15 -29 27 -51 35
-39 14 4 -8 3 -10 -2 -5 -5 5 -9 12 -9 15 0 4 -8 19 -18 33 -10 15 -21 40 -26
56 -10 35 -4 122 9 138 5 7 7 14 4 18 -3 3 -1 14 6 24 11 17 11 17 6 -1 -6
-16 -4 -17 9 -6 8 7 13 16 10 20 -3 4 3 14 13 21 15 13 16 12 3 -3 -7 -10 -10
-18 -5 -18 12 0 42 20 31 20 -9 0 1 20 9 20 3 0 2 -4 -1 -10z"/>
<path d="M1718 2958 c-25 -11 -37 -22 -32 -29 4 -8 3 -9 -4 -5 -15 9 -64 -23
-55 -37 3 -5 2 -7 -4 -4 -17 11 -119 -115 -108 -132 2 -4 -2 -29 -10 -56 -38
-124 -4 -256 95 -371 26 -30 23 -29 -12 7 -25 27 -58 72 -72 101 -15 29 -24
42 -20 28 15 -60 92 -156 157 -197 21 -13 42 -21 47 -18 6 4 10 -1 10 -9 0 -9
4 -16 9 -16 5 0 18 -3 28 -6 15 -5 16 -4 3 6 -12 9 -10 10 10 4 14 -4 43 -11
65 -15 39 -8 38 -8 -9 -5 -30 3 -44 1 -35 -5 18 -11 82 -11 94 0 13 12 115 19
108 7 -14 -22 120 38 139 62 12 16 11 16 -7 2 -18 -14 -19 -14 -7 2 8 9 19 15
26 12 13 -5 80 60 81 79 1 7 14 39 30 72 25 53 28 72 29 155 0 83 -3 102 -26
153 -15 31 -25 57 -23 57 7 0 27 -41 46 -95 10 -27 18 -42 19 -33 0 10 -11 42
-25 73 -27 62 -131 179 -152 171 -7 -3 -12 0 -10 6 1 6 -4 13 -12 16 -9 3 -11
0 -6 -8 5 -9 4 -11 -4 -6 -6 4 -9 12 -6 17 13 19 -55 32 -183 33 -109 2 -141
-1 -174 -16z m76 -209 c-5 -9 1 -10 22 -3 16 4 47 8 69 8 22 0 53 -4 69 -8 23
-7 27 -6 21 5 -5 8 -4 11 1 6 5 -5 9 -14 9 -19 0 -6 6 -13 14 -16 9 -3 11 0 7
9 -4 8 6 -1 23 -20 58 -66 53 -195 -10 -256 -12 -11 -19 -14 -15 -7 4 6 4 12
-1 12 -15 0 -38 -19 -38 -32 0 -13 -41 -26 -85 -26 -22 0 -22 1 5 8 28 7 29 8
5 9 -15 0 -31 -4 -38 -11 -9 -9 -12 -8 -12 6 0 13 -5 17 -20 13 -11 -3 -18 -1
-14 4 3 5 -6 14 -20 20 -38 18 -69 88 -64 148 1 27 0 47 -4 44 -16 -9 -8 -99
12 -138 11 -21 18 -40 16 -42 -8 -9 -49 92 -48 119 1 50 13 89 25 81 6 -4 8
-1 5 8 -3 9 3 26 14 40 l20 24 -17 -30 -18 -30 27 24 c14 14 24 27 21 29 -3 3
0 11 6 19 14 16 23 17 13 2z"/>
<path d="M2351 2967 c-8 -10 -11 -120 -10 -366 0 -194 -2 -355 -5 -358 -2 -3
-5 154 -5 348 -1 194 -3 355 -6 357 -3 3 -4 -156 -3 -354 3 -311 5 -359 18
-359 8 0 15 -7 15 -15 0 -12 16 -15 85 -16 l85 -1 -85 7 -85 6 86 2 c69 2 88
5 93 18 3 9 6 58 6 109 0 78 3 97 20 116 l20 24 29 -35 c16 -19 27 -38 24 -43
-2 -4 3 -20 12 -34 14 -20 19 -23 26 -12 7 11 9 9 9 -6 0 -11 5 -27 11 -35 9
-13 10 -12 5 3 -3 11 -2 16 4 12 6 -3 10 -16 10 -28 0 -12 7 -31 15 -41 8 -11
15 -15 15 -9 0 7 -4 15 -10 18 -5 3 -10 11 -10 18 0 17 29 -26 30 -44 0 -38
32 -49 131 -47 l94 2 -95 6 -95 7 106 -1 c103 -1 105 -1 107 22 1 13 -12 43
-28 67 -17 24 -30 47 -30 52 0 4 14 -12 30 -37 16 -25 30 -41 30 -37 0 5 -13
27 -29 51 -41 59 -101 130 -101 118 0 -5 9 -17 21 -28 11 -10 26 -28 31 -39
13 -25 9 -21 -41 40 -23 27 -41 61 -42 75 0 23 -1 23 -9 5 -8 -18 -9 -18 -9 6
-1 14 -14 44 -29 65 -47 65 -47 66 23 142 36 38 61 73 57 76 -4 4 -1 6 7 4 7
-1 16 3 19 11 3 10 0 11 -9 5 -12 -7 -12 -5 0 9 16 20 25 23 15 5 -3 -7 10 4
30 24 20 20 36 45 36 55 0 15 2 16 11 3 8 -11 9 -8 4 13 -4 21 -3 27 6 21 8
-4 9 -3 5 4 -4 7 -22 13 -39 13 l-32 1 30 8 c19 4 -12 8 -83 8 l-113 1 -39
-36 c-22 -19 -40 -43 -40 -52 -1 -9 -12 -29 -26 -46 -18 -20 -22 -23 -15 -8 6
12 16 25 21 28 6 3 10 11 10 17 0 6 -13 -6 -30 -27 -16 -20 -27 -41 -25 -46 3
-4 0 -11 -6 -15 -8 -4 -9 -3 -5 4 4 7 3 12 -2 12 -5 0 -13 -15 -16 -32 -12
-57 -28 -7 -29 90 0 81 -1 83 -6 27 -3 -33 -3 -84 0 -113 3 -29 2 -55 -3 -58
-8 -5 -11 56 -8 175 1 44 -3 67 -12 72 -22 15 -164 11 -177 -4z"/>
<path d="M651 1864 l-31 -26 0 -139 0 -138 -117 -3 c-81 -2 -117 -7 -116 -14
1 -7 -7 -20 -17 -29 -19 -18 -20 -35 -20 -659 0 -568 2 -644 16 -666 l16 -25
-21 24 c-21 23 -21 29 -21 666 0 630 0 642 20 660 11 10 18 20 15 23 -2 3 -13
-6 -24 -19 -20 -23 -20 -40 -21 -667 l0 -644 28 -28 c33 -32 40 -33 317 -50
294 -18 525 -54 674 -105 95 -32 207 -32 302 0 152 52 384 87 684 105 265 15
273 17 307 50 l28 28 0 644 c-1 627 -1 644 -21 667 -11 13 -22 22 -24 19 -3
-3 4 -13 15 -23 20 -18 20 -30 20 -660 0 -565 -2 -643 -16 -661 -15 -18 -15
-18 -5 3 8 14 11 233 11 661 0 622 -1 639 -20 657 -10 9 -18 22 -17 29 1 7
-35 12 -115 14 l-118 3 0 138 0 139 -31 26 c-24 21 -40 26 -77 24 l-47 -1 50
-8 c42 -6 37 -7 -30 -5 -44 2 -71 0 -60 -4 11 -4 -9 -7 -45 -6 -48 1 -91 -7
-165 -32 -114 -37 -290 -122 -290 -139 0 -6 -4 -15 -9 -20 -5 -5 -6 -2 -1 6 5
9 3 12 -6 9 -8 -3 -14 -10 -14 -16 0 -5 -4 -14 -9 -19 -5 -5 -6 -2 -1 6 5 9 3
12 -6 9 -8 -3 -13 -10 -12 -16 1 -5 -5 -16 -15 -24 -15 -12 -16 -11 -3 5 20
25 -2 21 -25 -5 -12 -13 -13 -18 -4 -13 9 5 8 0 -4 -13 -21 -25 -36 -31 -16
-7 7 8 8 15 3 15 -13 0 -45 -35 -38 -42 3 -3 -1 -11 -10 -18 -12 -10 -18 -10
-30 0 -9 7 -13 15 -10 18 7 7 -25 42 -38 42 -5 0 -3 -8 4 -17 11 -15 9 -14 -9
1 -12 11 -20 21 -17 24 6 7 -15 32 -27 32 -5 0 -6 -5 -2 -12 4 -7 3 -8 -5 -4
-6 4 -9 11 -6 16 3 5 -5 16 -17 24 -27 19 -42 21 -32 4 4 -8 3 -10 -2 -5 -5 5
-9 14 -9 20 0 17 -176 102 -290 139 -74 25 -117 33 -165 32 -36 -1 -56 2 -45
6 11 4 -16 6 -60 4 -67 -2 -72 -1 -30 5 l50 8 -47 1 c-37 2 -53 -3 -77 -24z
m269 -179 c51 -14 96 -28 100 -32 3 -3 -6 -3 -20 1 -71 18 -67 14 15 -17 50
-19 109 -43 132 -55 48 -25 57 -27 47 -10 -4 7 -3 8 5 4 6 -4 9 -11 6 -16 -3
-5 3 -14 14 -19 26 -14 34 -14 25 2 -4 7 -3 9 2 4 5 -5 9 -14 9 -19 0 -6 6
-13 14 -16 9 -3 11 0 6 9 -5 8 -6 12 -2 9 3 -3 5 -8 4 -11 -3 -9 24 -39 35
-39 6 0 4 8 -3 18 -11 14 -10 14 8 -2 13 -10 21 -22 18 -26 -2 -4 14 -24 35
-45 48 -47 53 -36 8 15 l-33 35 38 -35 37 -34 0 -573 c0 -315 -2 -573 -4 -573
-2 0 -10 8 -17 17 -10 11 -10 14 -1 9 9 -6 12 106 10 546 l-3 553 -5 -544 c-4
-463 -7 -542 -19 -528 -18 23 -37 22 -20 0 13 -16 12 -17 -4 -4 -9 8 -15 16
-12 19 7 7 -15 32 -27 32 -6 0 -4 -8 3 -17 13 -16 12 -17 -3 -4 -10 7 -15 17
-13 22 8 11 -33 31 -47 23 -7 -4 -8 -3 -4 4 8 14 -30 36 -46 26 -7 -4 -8 -3
-4 4 8 14 -50 46 -66 36 -6 -4 -8 -3 -5 3 3 5 -14 19 -39 31 -55 27 -72 28
-24 2 49 -27 33 -25 -32 4 -30 14 -94 37 -141 51 -48 15 -84 31 -81 36 3 5 0
9 -5 9 -8 0 -11 170 -11 551 l0 551 43 -6 42 -5 -45 13 c-79 24 -19 17 80 -9z
m1235 9 l-40 -14 36 5 c34 5 37 4 43 -26 11 -57 7 -1069 -5 -1069 -5 0 -8 -4
-5 -9 3 -5 -33 -21 -81 -36 -47 -14 -111 -37 -141 -51 -65 -29 -81 -31 -32 -4
64 35 21 21 -61 -20 -44 -22 -77 -45 -74 -50 4 -6 -1 -7 -11 -3 -11 4 -15 2
-11 -4 4 -6 -1 -10 -11 -9 -9 0 -16 -5 -14 -12 1 -8 -2 -11 -8 -7 -12 8 -52
-13 -45 -24 2 -5 -3 -15 -13 -22 -15 -13 -16 -12 -3 4 7 9 9 17 3 17 -12 0
-34 -25 -27 -32 3 -3 -3 -11 -12 -19 -16 -13 -17 -12 -4 4 17 22 3 22 -21 0
-17 -16 -18 2 -20 528 l-3 544 -2 -539 c-2 -350 0 -543 7 -551 7 -8 4 -18 -12
-31 -12 -10 -18 -14 -14 -7 3 7 6 268 6 580 l0 569 37 34 38 35 -32 -35 c-46
-51 -41 -62 7 -15 21 21 37 41 35 45 -3 4 5 16 18 26 18 16 19 16 8 2 -8 -11
-9 -18 -3 -18 11 0 27 19 27 32 0 3 4 10 9 15 5 5 6 2 1 -6 -5 -9 -3 -12 6 -9
8 3 14 10 14 16 0 5 4 14 9 19 5 5 6 3 2 -4 -9 -16 -1 -16 25 -2 11 5 17 14
14 19 -3 5 0 12 6 16 8 4 9 3 5 -4 -10 -17 -1 -15 47 10 23 12 83 36 132 55
50 19 79 32 67 29 -47 -9 -9 9 51 26 75 20 107 21 52 2z m193 -1231 c-12 -13
-36 -27 -52 -32 -17 -5 -23 -10 -13 -10 24 -1 57 17 79 43 16 19 17 56 18 464
l0 442 50 0 50 0 0 -519 0 -519 -107 -7 c-118 -7 -390 -32 -438 -40 -45 -8 49
40 160 82 50 19 80 32 67 29 -12 -2 -20 -1 -18 3 3 4 42 16 87 26 44 10 92 27
105 38 l24 18 2 457 3 457 2 -454 3 -454 -22 -24z m-1744 901 c14 -5 16 -54
16 -443 l0 -436 25 -27 c25 -28 70 -46 82 -34 4 3 -4 6 -17 6 -13 0 -21 3 -17
6 7 7 148 -25 161 -37 5 -4 -2 -6 -15 -3 -13 3 17 -10 66 -29 50 -19 113 -46
140 -61 47 -25 48 -27 17 -22 -57 10 -321 34 -434 41 l-108 7 0 519 0 519 34
0 c19 0 41 -3 50 -6z"/>
<path d="M946 1332 c-15 -17 -26 -36 -23 -44 4 -9 6 -9 6 3 1 9 11 24 24 35
22 19 22 19 5 -2 -10 -11 -18 -36 -18 -54 0 -18 8 -43 18 -54 16 -20 16 -20
-2 -6 -10 8 -22 23 -26 35 -6 14 -9 15 -9 4 -1 -28 48 -63 127 -89 42 -15 86
-30 96 -35 15 -7 18 -5 11 6 -5 8 -5 11 1 6 5 -5 9 -14 9 -20 0 -8 19 -12 49
-12 40 -1 54 4 73 25 34 36 30 79 -9 118 -47 44 -179 103 -247 109 -52 5 -58
3 -85 -25z"/>
<path d="M952 955 c-18 -15 -32 -31 -32 -36 0 -6 10 0 23 13 12 13 16 17 10 8
-7 -9 -13 -32 -13 -50 0 -18 6 -41 13 -50 6 -9 2 -5 -10 8 -13 13 -23 19 -23
13 0 -12 58 -61 73 -61 7 0 6 4 -3 10 -20 14 34 2 75 -16 25 -12 26 -13 5 -8
-22 4 -23 4 -7 -6 10 -7 25 -9 33 -6 8 3 12 1 9 -4 -7 -11 86 -60 114 -60 33
0 91 58 91 90 0 34 -37 83 -57 76 -8 -3 -11 -2 -8 4 3 5 -8 16 -26 25 -17 9
-28 12 -25 7 4 -6 -2 -8 -15 -5 -13 4 -17 8 -9 13 16 10 -86 52 -140 58 -39 3
-51 0 -78 -23z"/>
<path d="M1895 1341 c-176 -64 -239 -135 -184 -210 18 -25 26 -28 72 -27 32 1
52 6 52 13 0 6 4 15 9 20 6 5 6 2 1 -6 -7 -11 -4 -13 11 -6 10 5 54 20 96 35
96 32 126 58 125 108 -1 83 -73 112 -182 73z"/>
<path d="M1985 970 l40 -7 -37 -2 c-20 0 -48 -5 -63 -11 -17 -7 -24 -7 -20 0
3 6 13 10 22 10 9 0 13 3 10 6 -11 11 -97 -27 -97 -43 0 -9 -7 -13 -17 -10
-23 5 -75 -21 -68 -33 3 -6 0 -7 -8 -4 -20 7 -57 -42 -57 -76 0 -32 58 -90 91
-90 23 0 159 67 174 85 5 7 24 16 40 19 22 5 26 4 15 -4 -9 -6 -10 -10 -3 -10
15 0 73 49 73 61 0 6 -10 0 -22 -13 -13 -13 -17 -17 -10 -8 6 9 12 32 12 50 0
18 -6 41 -12 50 -7 9 -3 5 10 -8 12 -13 22 -19 22 -13 0 5 -14 21 -31 35 -22
19 -41 26 -67 25 l-37 -2 40 -7z"/>
</g>
</svg>
