<?xml version="1.0" standalone="no"?>
<!DOCTYPE svg PUBLIC "-//W3C//DTD SVG 20010904//EN"
 "http://www.w3.org/TR/2001/REC-SVG-20010904/DTD/svg10.dtd">
<svg version="1.0" xmlns="http://www.w3.org/2000/svg"
 width="240.000000pt" height="300.000000pt" viewBox="0 0 240.000000 300.000000"
 preserveAspectRatio="xMidYMid meet">
<metadata>
Created by potrace 1.16, written by Peter Selinger 2001-2019
</metadata>
<g transform="translate(0.000000,300.000000) scale(0.100000,-0.100000)"
fill="#000000" stroke="none">
<path d="M828 2949 c-27 -28 -51 -63 -57 -86 -6 -21 -11 -127 -11 -235 l0
-198 -57 -2 -58 -1 55 -7 c54 -7 54 -7 -15 -5 -44 1 -81 8 -100 19 -27 15 -28
16 -5 11 20 -5 18 -2 -10 14 -40 23 -54 26 -44 9 4 -7 3 -8 -5 -4 -6 4 -9 11
-7 15 3 4 -16 29 -42 54 l-47 47 -30 -20 c-17 -11 -30 -24 -30 -29 0 -5 -4
-13 -9 -18 -5 -5 -6 -3 -2 5 11 18 -9 15 -25 -5 -12 -15 -12 -16 1 -8 13 8 13
6 1 -8 -7 -9 -18 -14 -24 -10 -6 4 -2 -7 10 -23 31 -44 125 -129 163 -149 52
-27 140 -55 173 -55 28 0 29 -1 15 -22 -22 -34 -30 -78 -18 -93 8 -10 8 -15
-1 -21 -8 -4 -9 -3 -5 4 4 7 3 12 -3 12 -10 0 -26 -19 -26 -32 0 -3 -4 -10 -9
-15 -6 -5 -6 -2 -1 7 8 13 6 13 -8 2 -9 -8 -27 -37 -42 -65 -22 -44 -25 -62
-23 -141 l1 -91 7 100 c4 65 12 111 23 132 27 51 36 47 10 -4 -19 -39 -23 -62
-23 -140 l0 -93 68 0 c37 0 78 -3 92 -5 22 -5 23 -4 5 5 -17 9 -14 10 13 5 18
-2 31 -1 28 4 -3 5 1 12 10 15 9 4 13 2 8 -5 -4 -7 -1 -10 7 -7 18 6 54 -83
37 -93 -7 -4 -5 -8 7 -10 9 -2 -10 -11 -43 -20 -34 -8 -58 -11 -55 -6 3 5 0 7
-8 5 -8 -3 -13 -10 -12 -16 2 -6 -3 -9 -10 -6 -23 9 -104 -73 -136 -138 l-31
-61 2 -246 2 -246 6 255 5 255 29 52 c15 28 42 64 59 80 31 28 31 28 -2 -11
-19 -22 -44 -62 -57 -90 -23 -49 -24 -60 -24 -298 l0 -248 656 0 655 0 -3 252
c-3 243 -4 255 -27 298 -12 25 -42 65 -65 89 -22 24 -35 40 -27 36 10 -5 12
-4 7 4 -8 12 -79 51 -93 51 -4 -1 3 -8 17 -16 17 -10 18 -13 5 -9 -11 4 -40
13 -65 20 -25 7 -40 14 -33 14 7 1 10 7 7 14 -3 8 4 34 15 59 11 26 16 50 13
54 -4 4 -1 4 6 0 7 -4 10 -11 7 -16 -3 -4 2 -11 11 -14 24 -9 31 -7 14 5 -12
9 -11 10 5 4 11 -4 62 -10 114 -13 l93 -5 -4 99 c-5 108 -17 143 -72 204 l-31
35 33 -30 c55 -49 75 -98 83 -205 l7 -95 -2 95 c-3 108 -19 151 -80 209 -26
26 -36 43 -36 67 0 17 -9 43 -21 58 l-20 26 33 0 c43 1 163 43 163 57 0 6 4
15 9 20 5 5 6 3 2 -4 -11 -20 9 -15 35 8 13 11 17 17 9 13 -13 -7 -13 -5 -1 9
15 18 26 23 16 7 -3 -5 -2 -10 3 -10 12 0 43 35 37 42 -3 3 3 11 12 19 17 13
17 12 4 -6 -7 -11 3 -2 23 20 20 22 35 47 35 55 0 9 -3 7 -9 -5 -4 -12 -16
-27 -26 -35 -18 -14 -18 -14 -1 6 30 35 21 59 -33 94 l-50 32 -48 -50 c-46
-50 -117 -91 -157 -92 -15 0 -17 -3 -7 -9 11 -7 11 -9 -2 -14 -9 -4 -16 -2
-16 3 0 6 -25 10 -55 10 l-55 0 0 218 0 218 -29 45 c-51 81 -67 88 -189 86
-74 -1 -107 -6 -107 -14 0 -6 -4 -15 -9 -20 -5 -5 -6 -3 -2 5 15 25 -11 11
-45 -25 l-34 -38 35 30 35 30 -34 -38 c-34 -36 -48 -47 -36 -27 3 6 -4 10 -18
10 -13 0 -34 11 -47 25 -13 14 -28 25 -34 25 -5 0 6 -17 25 -37 l34 -38 -43
40 c-43 40 -51 51 -29 40 6 -4 1 3 -12 14 -25 22 -47 28 -35 10 4 -8 0 -8 -15
0 -12 7 -56 11 -99 10 l-77 -2 -47 -48z m913 -676 l-43 -4 22 -24 c15 -15 23
-39 25 -67 3 -41 2 -41 -5 -8 l-7 35 -2 -42 c-1 -52 -38 -98 -89 -113 -20 -5
-128 -10 -239 -10 l-203 0 -2 -355 -3 -356 -80 64 c-86 69 -154 149 -214 252
-21 35 -41 61 -45 58 -4 -4 -4 1 0 11 5 13 4 17 -3 13 -11 -7 -43 60 -43 88 0
8 -5 15 -11 15 -5 0 -7 5 -3 11 4 8 9 7 16 -2 7 -10 8 -6 4 13 -3 14 -11 62
-17 105 -6 43 -13 80 -15 83 -3 2 -19 9 -36 15 -20 6 -44 28 -65 57 -36 53
-37 85 -1 128 11 14 17 18 13 10 -3 -8 2 -5 12 7 l18 22 530 -1 c292 -1 510
-3 486 -5z"/>
<path d="M1765 659 c-10 -26 -1 -639 10 -642 14 -3 19 633 5 647 -6 6 -11 4
-15 -5z"/>
<path d="M140 387 c0 -8 3 -16 6 -20 10 -10 4 -329 -7 -351 -10 -20 -10 -20 5
-2 13 16 16 50 16 180 l0 161 174 -174 c96 -96 183 -176 192 -177 10 -2 -72
87 -182 197 -109 109 -200 199 -201 199 -2 0 -3 -6 -3 -13z"/>
</g>
</svg>
