<?xml version="1.0" standalone="no"?>
<!DOCTYPE svg PUBLIC "-//W3C//DTD SVG 20010904//EN"
 "http://www.w3.org/TR/2001/REC-SVG-20010904/DTD/svg10.dtd">
<svg version="1.0" xmlns="http://www.w3.org/2000/svg"
 width="300.000000pt" height="161.000000pt" viewBox="0 0 300.000000 161.000000"
 preserveAspectRatio="xMidYMid meet">
<metadata>
Created by potrace 1.16, written by Peter Selinger 2001-2019
</metadata>
<g transform="translate(0.000000,161.000000) scale(0.100000,-0.100000)"
fill="#000000" stroke="none">
<path d="M2189 1584 c-28 -13 -48 -28 -45 -33 4 -5 1 -13 -5 -17 -8 -5 -9 -3
-4 6 5 8 3 11 -6 8 -8 -3 -14 -10 -14 -15 0 -6 -4 -15 -9 -20 -5 -5 -6 -3 -2
5 4 6 3 12 -2 12 -21 0 -117 -119 -146 -180 -26 -56 -31 -78 -33 -159 -2 -77
-6 -98 -22 -115 -46 -49 -53 -119 -18 -189 13 -25 20 -44 14 -40 -5 3 -18 24
-28 47 -32 70 -22 134 29 191 l27 30 -29 -25 c-78 -68 -71 -192 16 -266 19
-16 48 -53 64 -83 35 -67 122 -164 140 -157 7 3 18 -3 26 -12 11 -15 11 -16
-2 -7 -9 6 -7 2 4 -8 10 -10 26 -15 33 -13 8 3 11 2 8 -4 -3 -5 3 -14 14 -19
29 -16 38 -13 15 4 -18 14 -17 15 7 4 32 -14 33 -48 2 -60 -14 -5 -23 -5 -23
1 0 6 -5 10 -11 10 -5 0 -8 -4 -4 -10 3 -5 -14 -14 -37 -20 -111 -30 -179 -49
-190 -55 -7 -4 -4 1 6 9 23 18 14 21 -15 5 -11 -5 -17 -14 -14 -19 3 -6 0 -7
-8 -4 -20 7 -101 -86 -115 -134 -7 -22 -11 -87 -10 -148 l2 -109 5 125 c7 139
21 180 83 235 l33 30 -31 -35 c-59 -65 -68 -94 -72 -228 l-4 -122 60 0 61 0 3
58 c2 31 8 57 13 57 6 0 11 -26 13 -57 l3 -58 444 0 445 0 0 55 c0 30 5 55 10
55 6 0 10 -25 10 -55 l0 -55 61 0 60 0 -2 151 -2 150 -40 45 c-36 41 -68 60
-51 32 4 -8 3 -10 -2 -5 -5 5 -9 14 -9 19 0 6 -6 13 -14 16 -8 3 -11 0 -8 -5
3 -5 -46 5 -110 24 -64 18 -131 36 -150 39 -29 5 -33 10 -31 34 1 20 6 26 17
22 10 -4 12 -1 6 8 -5 9 -4 11 4 6 10 -7 81 29 81 40 0 3 -4 2 -10 -1 -16 -10
-11 1 7 16 11 10 14 10 9 2 -14 -25 10 -13 42 20 32 33 43 55 20 41 -6 -4 0 8
15 27 14 19 37 59 51 89 14 30 26 49 26 42 0 -15 -33 -82 -62 -127 l-20 -30
22 25 c12 14 33 46 45 71 16 31 34 50 55 59 17 7 40 27 52 44 l21 31 -38 -35
-39 -35 32 38 c17 20 35 49 38 63 11 45 -2 123 -26 157 -22 30 -22 31 -2 13
30 -26 45 -79 40 -143 -3 -30 -1 -48 3 -41 12 19 11 102 -2 135 -11 30 -57 83
-71 83 -5 0 -6 -6 -2 -12 6 -10 5 -10 -8 -1 -8 7 -17 11 -20 8 -3 -3 -1 20 4
52 14 92 -8 198 -58 273 -12 17 -9 16 9 -5 42 -48 61 -118 61 -225 0 -83 1
-89 8 -45 16 98 -9 208 -63 276 -28 36 -59 55 -43 27 4 -8 3 -10 -2 -5 -5 5
-9 14 -9 20 0 5 -6 12 -14 15 -8 3 -11 0 -8 -5 12 -19 -63 0 -80 21 -18 21
-18 21 3 4 11 -10 31 -18 45 -17 24 1 24 1 -3 9 -15 4 -42 19 -60 33 -38 30
-122 67 -146 66 -14 0 -13 -2 3 -10 15 -7 13 -8 -10 -2 -16 4 -83 7 -148 8
-104 2 -123 0 -168 -21z m412 -324 c6 0 7 -4 4 -10 -3 -5 -2 -10 4 -10 5 0 17
-3 27 -7 13 -5 15 -3 9 8 -15 25 37 -25 57 -56 15 -22 11 -20 -17 10 l-37 40
28 -40 c15 -22 37 -50 48 -62 21 -24 42 -32 30 -10 -5 8 -2 7 10 -2 16 -13 15
-17 -16 -50 -18 -19 -24 -29 -13 -21 20 15 20 14 1 -8 -13 -15 -23 -19 -30
-12 -15 15 -239 13 -254 -2 -18 -18 -44 -19 -57 -1 -9 13 -34 15 -139 14 -102
-2 -126 1 -121 11 4 7 -2 2 -13 -11 -14 -18 -21 -21 -27 -11 -6 9 -4 11 5 5 9
-6 11 -4 6 4 -5 7 -14 10 -21 7 -7 -2 -23 6 -34 18 l-22 23 82 2 c45 1 91 7
101 12 13 7 18 6 19 -3 0 -10 2 -10 6 0 2 7 14 17 26 23 21 10 21 10 3 -5 -27
-22 -13 -20 35 4 24 13 37 25 33 32 -4 7 -3 8 4 4 16 -10 74 22 66 36 -4 6 -3
8 4 4 13 -8 103 34 96 45 -6 10 56 29 74 23 8 -2 18 -4 23 -4z m279 -213 c0
-4 6 -15 15 -23 19 -19 20 -93 2 -118 -11 -15 -12 -8 -9 46 3 56 1 65 -21 86
-22 21 -25 21 -37 7 -11 -13 -11 -21 -2 -36 15 -23 16 -66 2 -74 -5 -3 -11
-16 -11 -28 -1 -19 -2 -19 -6 -3 -3 10 0 23 6 29 13 13 15 63 3 71 -5 3 -6 -8
-4 -25 2 -16 -1 -36 -8 -43 -6 -8 -9 -28 -7 -44 5 -30 -31 -134 -53 -156 -6
-6 0 14 14 44 14 30 26 62 26 70 0 8 -11 -12 -25 -44 -13 -32 -29 -64 -34 -69
-14 -14 -14 -30 -1 -22 18 11 11 -1 -12 -21 -19 -15 -20 -16 -9 -1 24 31 6 18
-34 -25 -22 -23 -32 -36 -22 -29 24 19 21 8 -5 -15 -12 -10 -18 -13 -13 -5 5
9 3 12 -6 9 -8 -3 -13 -11 -11 -17 1 -7 -1 -10 -5 -8 -5 3 -40 -6 -78 -19 -39
-13 -63 -24 -55 -24 38 -3 -30 -19 -82 -19 -62 -1 -91 6 -82 20 3 5 -2 9 -11
9 -10 0 -14 -5 -9 -12 4 -7 -3 -2 -16 10 -14 15 -30 22 -41 19 -12 -3 -17 -1
-12 6 4 6 0 8 -10 4 -10 -4 -16 -2 -14 5 1 6 -4 13 -12 16 -9 3 -11 0 -6 -9 5
-8 4 -11 -1 -6 -5 5 -9 12 -9 15 0 13 -16 32 -27 32 -6 0 -5 -7 3 -18 7 -9 -8
3 -35 28 -28 27 -59 71 -78 110 -16 36 -35 74 -41 85 -9 18 -8 19 6 6 10 -7
17 -19 17 -26 0 -25 61 -132 91 -160 28 -26 27 -24 -9 22 -22 29 -48 74 -58
100 -23 64 -42 85 -68 77 -16 -5 -18 -3 -10 5 6 7 20 13 31 14 14 1 19 6 15
16 -4 10 -1 12 7 6 8 -4 6 4 -4 19 -10 15 -15 35 -12 47 5 17 3 19 -6 10 -8
-8 -8 -19 1 -44 10 -29 10 -30 -3 -13 -27 36 -11 81 24 69 11 -4 8 3 -9 23
l-25 29 27 -24 c15 -13 26 -28 25 -34 -1 -5 4 -12 12 -15 8 -3 11 0 7 7 -12
19 0 12 20 -11 19 -22 19 -23 -1 -8 -19 14 30 -47 50 -62 6 -4 60 -8 121 -8
98 0 113 2 129 20 10 11 28 20 40 20 12 0 30 -9 40 -20 16 -18 31 -20 128 -20
100 0 113 2 134 22 13 12 23 26 23 31 0 5 -9 -2 -21 -17 -20 -25 -23 -26 -131
-26 -90 0 -115 3 -130 17 -10 9 -18 21 -18 27 0 6 7 0 16 -12 14 -20 23 -22
127 -22 l112 0 28 32 c16 18 26 27 22 21 -11 -23 11 -14 36 14 18 20 19 24 4
13 -18 -14 -19 -14 -6 2 7 10 17 15 22 12 5 -3 9 0 9 7 0 24 31 48 52 40 11
-4 19 -10 18 -14z"/>
<path d="M48 1083 c-27 -2 -48 -8 -48 -14 0 -5 5 -9 10 -9 7 0 10 -86 10 -255
-1 -151 -5 -255 -11 -255 -5 0 -9 -4 -9 -10 0 -5 23 -10 50 -10 28 0 50 5 50
10 0 6 -6 10 -12 10 -9 0 -8 4 2 10 11 7 11 10 2 10 -10 0 -13 43 -12 208 1
114 0 212 -2 217 -1 6 -5 -93 -8 -220 l-6 -230 -2 249 -2 249 83 -129 c104
-162 99 -154 93 -154 -2 0 -35 47 -72 105 -37 58 -69 105 -71 105 -6 0 20 -43
158 -254 83 -129 122 -180 137 -183 l22 -3 2 268 3 267 5 -270 5 -270 3 268
c1 170 6 267 12 267 6 0 10 5 10 10 0 6 -25 10 -55 10 -30 0 -55 -4 -55 -10 0
-5 7 -10 16 -10 13 0 15 -24 14 -187 -1 -104 0 -192 2 -198 1 -5 5 80 8 190
l6 200 2 -214 c1 -124 -2 -211 -7 -205 -7 7 -176 265 -205 312 -4 6 -5 12 -3
12 3 0 42 -57 87 -127 82 -127 125 -185 79 -108 -44 75 -219 339 -219 332 0
-4 7 -20 16 -35 l16 -27 -21 25 c-20 24 -25 36 -22 53 0 4 -2 6 -6 5 -5 -1
-29 -3 -55 -5z"/>
<path d="M1193 1083 c-57 -2 -103 -8 -103 -13 0 -6 5 -10 10 -10 6 0 10 -88
10 -245 0 -189 -3 -245 -12 -245 -9 0 -8 -4 2 -10 13 -8 12 -10 -5 -10 -11 0
-15 -3 -10 -9 6 -5 63 -11 127 -13 65 -2 110 0 100 5 -10 4 -4 5 16 2 18 -2
31 -1 28 4 -3 5 1 12 10 15 9 4 13 2 8 -5 -4 -7 -1 -10 7 -7 8 3 13 11 11 17
-1 7 2 9 9 6 14 -9 65 39 97 94 21 35 27 61 30 128 7 128 -29 202 -127 265
-42 26 -84 40 -51 17 12 -9 12 -10 -3 -5 -10 3 -28 6 -40 7 -20 1 -20 2 3 9
18 6 20 8 5 7 -11 -1 -66 -3 -122 -4z m97 -33 c14 -4 21 -9 15 -9 -9 -2 50
-31 62 -31 2 0 1 6 -3 13 -4 6 7 -1 24 -17 47 -44 65 -110 60 -220 -3 -61 -10
-102 -22 -126 -20 -38 -65 -90 -78 -90 -5 0 6 14 24 31 l33 31 -33 -26 c-19
-14 -43 -26 -55 -27 -21 0 -21 -1 -2 -8 15 -6 11 -9 -20 -14 -22 -4 -51 -6
-65 -5 -16 0 -11 3 15 8 l40 7 -37 2 -38 1 0 245 0 245 28 -1 c15 -1 38 -5 52
-9z"/>
<path d="M470 1070 c-12 -8 -11 -10 8 -10 l22 0 0 -245 c0 -189 -3 -245 -12
-245 -9 0 -8 -4 2 -10 10 -6 11 -10 3 -10 -7 0 -13 -4 -13 -10 0 -5 23 -10 50
-10 28 0 50 5 50 10 0 6 -6 10 -12 10 -9 0 -8 4 2 10 11 7 11 10 2 10 -10 0
-13 38 -12 183 2 257 -3 261 -10 7 l-6 -215 -1 240 -2 240 98 -243 c94 -233
107 -260 115 -251 2 2 47 112 101 244 53 132 99 242 101 244 2 2 4 -102 4
-232 0 -230 -1 -237 -20 -237 -11 0 -20 -4 -20 -10 0 -6 28 -10 65 -10 37 0
65 4 65 10 0 6 -4 10 -9 10 -6 0 -10 104 -11 255 0 169 3 255 10 255 5 0 10 5
10 10 0 6 -21 10 -47 10 l-48 0 -94 -235 -95 -234 -95 234 -95 235 -45 0 c-25
0 -53 -5 -61 -10z"/>
</g>
</svg>
