<?xml version="1.0" standalone="no"?>
<!DOCTYPE svg PUBLIC "-//W3C//DTD SVG 20010904//EN"
 "http://www.w3.org/TR/2001/REC-SVG-20010904/DTD/svg10.dtd">
<svg version="1.0" xmlns="http://www.w3.org/2000/svg"
 width="300.000000pt" height="203.000000pt" viewBox="0 0 300.000000 203.000000"
 preserveAspectRatio="xMidYMid meet">
<metadata>
Created by potrace 1.16, written by Peter Selinger 2001-2019
</metadata>
<g transform="translate(0.000000,203.000000) scale(0.100000,-0.100000)"
fill="#000000" stroke="none">
<path d="M2 1786 c3 -239 3 -241 25 -244 16 -2 22 3 25 20 3 23 23 29 23 7 0
-16 32 -27 80 -28 41 -1 89 18 86 32 -1 4 12 24 28 43 17 19 34 46 37 60 10
40 -2 100 -27 136 -13 19 -16 27 -7 20 25 -20 48 -76 48 -117 0 -42 -12 -69
-48 -107 -14 -16 -20 -28 -14 -28 16 0 69 83 77 120 13 58 -66 170 -131 186
-14 4 -47 4 -75 2 l-49 -5 0 63 c0 68 -7 78 -53 80 l-28 1 3 -241z m248 -71
c0 -49 -35 -85 -88 -92 -28 -4 -42 -2 -42 6 0 6 -9 20 -21 32 -16 16 -20 31
-17 64 1 24 0 41 -4 38 -16 -9 -8 -81 13 -109 l21 -29 -26 28 c-19 20 -26 39
-26 67 0 51 18 62 102 64 27 1 44 5 41 11 -2 5 7 -3 21 -18 17 -19 26 -39 26
-62z"/>
<path d="M969 1940 c-1 -47 -1 -89 0 -93 1 -4 -9 -2 -21 5 -13 7 -48 15 -78
19 l-55 7 55 -2 c30 -1 64 -6 75 -10 12 -4 10 -1 -5 8 -43 27 -173 15 -155
-14 3 -5 0 -12 -6 -16 -8 -4 -9 -3 -5 4 4 7 2 12 -3 12 -13 0 -71 -78 -71 -94
1 -6 8 1 16 17 21 39 24 33 6 -16 -20 -56 -10 -107 31 -155 30 -35 30 -36 3
-12 -16 14 -35 39 -42 55 -8 19 -13 23 -14 13 0 -22 64 -94 101 -114 36 -18
98 -18 140 1 30 13 32 21 4 15 -5 -1 -4 4 2 11 15 15 23 9 27 -18 3 -22 41
-25 41 -3 0 8 7 15 15 15 13 0 15 31 18 208 1 114 -1 214 -5 222 -5 7 -8 -86
-7 -208 l0 -222 -6 225 c-3 124 -7 226 -8 227 -1 2 -13 2 -27 1 -24 -2 -25 -4
-26 -88z m-54 -150 c-3 -4 2 -13 10 -20 8 -7 16 -22 16 -34 1 -16 2 -17 6 -4
2 9 -1 27 -7 40 -11 22 -10 22 4 4 9 -11 16 -38 16 -61 0 -32 -6 -47 -27 -66
-14 -13 -23 -19 -20 -12 5 8 -4 10 -32 6 -33 -5 -44 -1 -66 21 -27 27 -30 53
-10 100 6 13 5 17 -3 12 -21 -12 -25 -71 -8 -105 9 -17 14 -31 12 -31 -3 0
-13 14 -22 31 -20 39 -12 89 18 115 12 11 18 13 13 5 -6 -11 -4 -13 9 -8 10 4
33 7 52 7 24 0 33 4 28 12 -4 7 -3 8 5 4 6 -4 9 -11 6 -16z"/>
<path d="M2122 1997 c-21 -22 -22 -32 -22 -200 l0 -176 38 -41 c29 -30 47 -40
70 -40 40 0 75 16 91 42 7 11 8 17 2 13 -7 -3 -11 2 -11 15 0 14 4 19 13 14 6
-4 3 2 -7 14 -20 23 -41 28 -50 13 -4 -5 2 -7 13 -4 10 3 22 0 25 -6 5 -7 1
-8 -9 -5 -8 4 -23 0 -32 -7 -12 -10 -15 -10 -9 -1 5 8 0 12 -14 12 -14 0 -19
-4 -14 -12 5 -9 2 -9 -9 1 -14 11 -17 29 -15 100 l2 86 6 -90 6 -90 2 78 c2
69 4 77 21 77 37 0 51 12 52 44 1 30 1 30 10 6 l8 -25 -2 25 c-1 14 -8 26 -14
26 -7 1 -28 3 -45 4 l-33 3 35 7 35 7 -32 2 c-32 1 -33 2 -33 44 0 33 -6 49
-23 65 -29 27 -29 27 -55 -1z"/>
<path d="M445 1881 c-11 -5 -39 -29 -61 -53 -40 -44 -41 -46 -39 -109 2 -35 3
-67 4 -71 2 -16 65 -80 92 -94 54 -27 172 -9 161 26 -3 8 -2 12 2 8 4 -3 9
-14 10 -25 2 -12 11 -18 27 -18 23 0 24 3 27 83 5 113 -3 146 -45 193 -19 21
-31 39 -27 39 5 0 0 7 -10 15 -21 16 -107 19 -141 6z m1 -103 c-22 -31 -21
-102 2 -119 14 -11 15 -11 5 1 -7 8 -13 33 -13 55 0 58 25 79 85 73 31 -4 43
-2 38 6 -4 7 -1 7 7 -1 7 -6 15 -32 17 -58 3 -38 0 -49 -22 -71 -22 -22 -33
-26 -66 -21 -28 4 -37 2 -33 -6 4 -7 -6 0 -21 14 -20 19 -27 36 -27 63 0 32
24 86 38 86 3 0 -2 -10 -10 -22z"/>
<path d="M1077 1872 c-14 -15 -17 -42 -17 -159 0 -123 2 -142 18 -156 24 -22
45 -21 65 1 11 12 16 44 19 119 1 55 0 96 -4 90 -4 -7 -8 -53 -8 -104 0 -50
-3 -94 -7 -96 -5 -3 -6 42 -3 99 5 94 7 106 29 126 14 13 20 16 14 8 -10 -13
-4 -15 37 -15 29 0 46 4 43 10 -3 6 3 2 13 -8 15 -14 20 -37 24 -122 3 -57 2
-101 -2 -97 -4 4 -9 48 -11 97 l-3 90 -2 -91 c-2 -79 1 -93 17 -108 11 -10 28
-16 38 -14 16 3 18 16 21 113 3 103 5 112 29 135 14 14 23 19 19 13 -5 -9 2
-13 26 -13 51 0 58 -14 60 -114 l2 -91 6 95 6 95 2 -88 c1 -49 7 -98 14 -110
11 -21 10 -21 -8 -7 -18 14 -18 14 0 -8 21 -25 51 -26 51 -2 0 8 7 15 15 15
12 0 16 17 18 80 4 105 -8 143 -63 194 -39 36 -51 41 -90 41 -47 0 -110 -24
-100 -39 2 -5 -3 -15 -13 -22 -15 -12 -16 -12 -4 2 10 14 10 18 -4 23 -22 9
-26 8 -18 -6 4 -7 3 -8 -5 -4 -6 4 -9 11 -6 16 9 14 -30 30 -75 30 -49 0 -84
-16 -73 -33 5 -9 3 -9 -8 -1 -8 6 -21 14 -29 18 -8 3 -5 4 8 2 12 -2 20 0 16
5 -9 15 -40 10 -57 -9z"/>
<path d="M1639 1888 c-1 -2 -5 -73 -9 -158 l-7 -155 1 147 c1 81 -3 140 -7
133 -11 -21 -4 -280 8 -280 6 0 19 -6 30 -14 15 -9 16 -11 3 -7 -10 3 -18 1
-18 -4 0 -20 39 -9 59 16 19 24 21 40 21 153 0 69 -4 131 -8 138 -4 6 -6 -50
-4 -125 3 -115 1 -140 -13 -157 -9 -11 -14 -14 -10 -7 5 10 7 135 5 295 0 22
-4 27 -25 27 -14 0 -26 -1 -26 -2z"/>
<path d="M1746 1871 c-14 -16 -16 -38 -13 -157 l3 -139 2 142 c1 78 5 144 10
146 4 3 7 -68 7 -156 0 -149 1 -162 18 -165 10 -2 27 4 38 14 16 14 19 29 17
98 l-2 81 -3 -80 c-2 -44 -7 -83 -11 -87 -8 -8 -5 133 4 171 4 20 7 22 16 10
7 -11 9 -9 5 8 -3 14 2 27 12 35 14 12 15 11 2 -4 -8 -11 -9 -18 -3 -18 6 0
14 5 17 10 3 6 23 10 44 10 58 0 71 -21 71 -117 0 -66 4 -85 21 -107 25 -32
49 -33 72 -1 14 20 17 40 14 102 l-3 78 -2 -82 c-1 -45 -5 -84 -9 -86 -5 -3
-6 22 -5 55 6 99 -5 144 -46 191 l-36 42 33 -30 c18 -16 39 -43 47 -60 9 -20
13 -24 14 -12 0 10 -22 41 -48 69 -43 45 -54 51 -99 55 -65 7 -124 -11 -116
-35 5 -16 5 -16 -8 -1 -8 9 -21 20 -29 23 -8 3 -5 4 8 2 12 -2 20 0 16 5 -9
15 -40 10 -58 -10z"/>
<path d="M2405 1871 c-72 -43 -113 -127 -95 -190 23 -80 97 -141 170 -141 45
0 94 18 91 33 -1 4 12 24 28 43 17 19 34 46 37 60 10 39 -2 100 -26 134 -12
16 -19 30 -16 30 15 0 50 -69 57 -113 l8 -52 -3 52 c-3 59 -36 111 -90 144
-41 25 -121 25 -161 0z m175 -149 c0 -15 -4 -34 -9 -41 -7 -10 -8 -2 -5 25 4
27 1 45 -11 59 -16 20 -16 20 -6 -2 18 -36 13 -72 -15 -100 -21 -21 -32 -25
-65 -20 -27 4 -37 2 -33 -6 3 -7 -6 1 -21 17 -21 23 -25 36 -23 70 2 22 8 41
13 41 6 1 21 7 34 14 14 8 40 11 62 8 28 -4 37 -2 33 6 -3 7 6 -1 20 -16 15
-16 26 -40 26 -55z"/>
<path d="M2687 1872 c-14 -16 -17 -41 -17 -159 0 -123 2 -142 18 -156 24 -22
45 -21 65 1 13 14 17 38 17 101 0 45 5 92 11 104 10 21 10 21 -5 3 -12 -15
-16 -43 -16 -107 0 -48 -3 -90 -7 -92 -5 -3 -6 39 -3 94 4 87 8 101 29 121 13
13 21 18 18 13 -3 -6 13 -10 41 -11 95 -2 102 -9 102 -103 0 -112 8 -143 34
-139 20 3 21 9 23 133 1 128 1 130 -25 158 -39 41 -75 57 -129 57 -41 -1 -122
-29 -85 -30 7 0 10 -5 7 -11 -9 -13 -16 -6 -19 18 -4 25 -38 28 -59 5z"/>
<path d="M1443 1383 c-7 -2 -13 -12 -12 -21 0 -9 2 -12 5 -7 5 13 264 7 281
-7 9 -7 14 -44 15 -112 l2 -101 6 105 6 105 2 -100 2 -100 97 3 c72 2 94 0 83
-8 -12 -9 -12 -10 5 -8 12 2 19 -2 17 -10 -1 -8 2 -11 8 -7 7 4 9 -29 8 -97
l-2 -103 -6 95 -6 95 -2 -97 -2 -98 103 0 c67 0 107 -4 115 -12 7 -7 12 -8 12
-2 0 5 5 2 10 -6 5 -8 10 -10 10 -4 0 29 -32 38 -126 35 l-94 -3 0 99 c0 91
-2 101 -23 121 -20 19 -35 22 -110 22 l-87 0 0 88 c0 124 0 124 -177 125
l-138 1 130 6 130 6 -125 1 c-69 1 -131 -1 -137 -4z"/>
<path d="M1500 1271 c0 -7 -4 -9 -10 -6 -5 3 -26 -26 -45 -66 -20 -39 -31 -68
-24 -64 7 5 10 3 7 -6 -3 -8 -10 -13 -16 -12 -7 2 -9 -4 -5 -14 4 -11 3 -14
-5 -9 -8 5 -10 1 -5 -10 4 -12 3 -15 -5 -10 -8 5 -10 1 -5 -10 4 -12 3 -15 -5
-10 -8 5 -10 1 -5 -10 4 -12 3 -15 -5 -10 -8 5 -10 1 -5 -10 4 -12 3 -15 -5
-10 -7 4 -23 -16 -42 -55 -17 -33 -26 -58 -21 -54 14 8 14 -1 0 -26 -5 -11
-14 -17 -19 -14 -6 4 -7 -1 -3 -11 4 -12 3 -15 -5 -10 -8 5 -10 1 -5 -10 4
-12 3 -15 -5 -10 -8 5 -10 1 -5 -10 4 -12 3 -15 -5 -10 -8 5 -10 1 -5 -10 4
-12 3 -15 -5 -10 -7 4 -25 -19 -47 -65 -20 -39 -31 -68 -24 -63 9 5 10 2 6
-10 -4 -10 -7 -21 -7 -24 0 -4 -5 0 -10 8 -5 8 -10 10 -10 4 0 -15 58 -69 67
-61 3 4 1 7 -6 7 -7 0 -9 5 -6 10 4 6 10 8 15 5 4 -3 26 17 49 43 27 33 35 49
25 49 -9 0 -32 -20 -51 -44 -32 -39 -38 -42 -51 -29 -13 13 5 53 152 336 92
177 165 324 162 328 -3 3 -6 0 -6 -7z"/>
<path d="M1698 1043 c-9 -10 -13 -25 -10 -33 2 -8 1 -12 -3 -7 -13 11 -44 -23
-38 -41 4 -9 2 -13 -4 -9 -6 4 -18 -2 -28 -13 -10 -11 -15 -20 -11 -20 4 0 -6
-11 -23 -25 -20 -18 -28 -32 -24 -43 3 -9 2 -14 -2 -9 -13 11 -44 -23 -38 -41
4 -9 2 -13 -4 -9 -13 8 -38 -19 -38 -42 0 -9 -5 -16 -12 -16 -6 0 -15 -4 -20
-8 -8 -8 -9 -12 -12 -39 0 -6 -4 -8 -8 -5 -11 12 -42 -24 -36 -41 4 -10 2 -14
-2 -9 -13 11 -44 -23 -38 -41 4 -9 2 -13 -4 -9 -6 4 -17 -1 -26 -11 -15 -17
-17 -21 -17 -42 0 -6 -5 -9 -11 -8 -24 6 -18 -19 10 -46 l30 -29 71 57 c38 31
70 61 70 67 0 6 4 8 9 4 5 -3 19 7 30 21 12 15 21 24 21 20 0 -4 45 29 100 74
55 45 100 86 100 91 0 6 4 8 9 4 5 -3 18 6 29 20 11 13 22 22 25 19 2 -3 14 7
26 22 11 15 21 23 21 19 0 -5 9 0 20 10 17 15 20 31 20 102 l0 83 -83 0 c-67
0 -87 -3 -99 -17z m17 -3 c-4 -6 20 -10 65 -10 l72 0 -4 -74 c-2 -41 0 -72 5
-69 4 2 8 41 9 86 l2 82 3 -78 c4 -79 -6 -111 -31 -101 -7 3 -21 -6 -32 -18
-19 -23 -19 -23 1 -8 18 14 19 14 7 -2 -8 -9 -19 -15 -26 -12 -7 3 -21 -6 -32
-18 -19 -23 -19 -23 1 -8 18 14 19 14 7 -2 -8 -9 -19 -15 -26 -12 -6 2 -23 -8
-36 -23 l-25 -28 25 20 25 20 -18 -22 c-11 -12 -24 -20 -31 -17 -7 3 -21 -6
-32 -18 l-19 -23 25 20 25 20 -18 -22 c-11 -12 -24 -20 -31 -17 -7 3 -21 -6
-32 -18 l-19 -23 25 20 25 20 -18 -22 c-11 -12 -24 -20 -31 -17 -7 3 -21 -6
-32 -18 -19 -23 -19 -23 1 -8 18 14 19 14 7 -2 -8 -9 -19 -15 -26 -12 -7 3
-21 -6 -32 -18 -19 -23 -19 -23 1 -8 18 14 19 14 7 -2 -8 -9 -19 -15 -26 -12
-6 2 -23 -8 -36 -23 l-25 -28 25 20 25 20 -18 -22 c-11 -12 -25 -19 -32 -17
-7 3 -16 0 -21 -7 -4 -8 -3 -10 4 -5 20 12 13 0 -10 -20 -19 -15 -20 -16 -9
-1 19 24 -2 22 -24 -3 -10 -11 -14 -20 -10 -20 5 0 4 -5 -3 -12 -9 -9 -17 -6
-37 12 -14 13 -25 28 -25 33 0 5 9 -2 21 -17 11 -14 25 -26 31 -26 6 0 0 8
-13 19 -20 16 -21 21 -10 34 7 9 10 20 7 25 -3 6 2 16 12 23 16 13 16 12 2 -6
-15 -20 -15 -20 8 -1 12 11 21 25 18 32 -3 7 3 18 12 26 16 12 16 11 2 -7 -15
-20 -15 -20 8 -1 12 11 21 25 18 32 -3 7 2 18 10 24 8 7 14 9 14 5 0 -4 7 -2
15 5 8 7 14 19 13 26 -2 7 2 13 7 14 18 3 36 23 31 36 -3 7 3 18 12 26 16 12
16 11 2 -7 -15 -20 -15 -20 8 -1 12 11 21 25 18 32 -3 7 3 18 12 26 16 12 16
11 2 -7 -15 -20 -15 -20 8 -1 12 11 21 25 18 32 -3 7 5 20 17 31 l22 18 -20
-25 -20 -25 28 25 c15 13 25 30 23 36 -3 7 3 18 12 26 16 12 16 11 2 -7 -15
-20 -15 -20 8 -1 12 11 21 25 18 32 -3 7 3 18 12 26 16 12 16 11 2 -7 -15 -20
-15 -20 8 -1 12 11 21 25 18 32 -2 6 1 17 7 23 14 14 20 14 12 1z"/>
<path d="M2170 738 c0 -78 -3 -139 -6 -135 -9 8 -184 -81 -184 -94 0 -5 -5 -7
-12 -3 -7 5 -8 3 -3 -6 6 -10 4 -12 -9 -7 -11 5 -15 3 -10 -5 5 -8 2 -9 -10
-5 -11 5 -15 3 -10 -4 4 -7 1 -10 -7 -7 -17 6 -209 -88 -209 -103 0 -5 -5 -7
-12 -3 -7 5 -8 3 -3 -6 6 -10 4 -12 -9 -7 -11 5 -15 3 -10 -5 5 -8 2 -9 -10
-5 -11 5 -15 3 -10 -5 5 -8 2 -9 -10 -5 -11 5 -15 3 -10 -4 4 -7 1 -10 -7 -7
-8 3 -48 -12 -89 -32 -60 -30 -96 -59 -175 -140 -55 -56 -101 -102 -102 -102
-2 1 -23 -8 -48 -19 -38 -17 -63 -20 -141 -17 -52 1 -94 7 -94 12 0 5 -3 7 -6
3 -4 -3 -32 19 -63 50 -31 31 -60 56 -65 55 -5 -2 -6 4 -2 13 4 10 2 14 -5 9
-8 -4 -9 1 -4 17 4 17 3 20 -3 10 -7 -9 -9 20 -8 85 1 55 -1 88 -4 74 l-7 -25
-4 25 c-3 14 -4 -16 -3 -65 1 -64 6 -100 18 -124 23 -43 93 -119 125 -135 32
-16 266 -19 296 -4 11 6 67 57 125 113 l105 102 353 184 352 184 0 142 c0 79
-2 143 -5 143 -3 0 -5 -64 -5 -142z"/>
<path d="M1902 805 c-11 -13 -22 -22 -25 -19 -2 3 -14 -6 -25 -20 -10 -14 -21
-23 -24 -21 -2 3 -28 -17 -56 -43 -29 -27 -54 -47 -56 -45 -2 2 -13 -7 -24
-21 -10 -14 -22 -23 -25 -20 -3 3 -15 -8 -28 -25 -12 -17 -26 -28 -30 -25 -4
2 -14 -5 -22 -16 -7 -11 -16 -17 -19 -14 -3 3 -15 -6 -26 -20 -10 -14 -22 -23
-24 -20 -3 3 -17 -9 -32 -26 -14 -17 -26 -28 -26 -23 -1 4 -15 -8 -32 -27 -17
-19 -27 -28 -23 -20 7 12 5 13 -6 2 -11 -10 -8 -17 17 -43 l31 -31 52 26 c31
16 49 31 45 38 -4 6 -1 9 7 6 17 -6 269 118 269 133 0 5 5 7 12 3 7 -5 8 -3 4
5 -5 8 -3 11 7 9 8 -2 69 24 136 57 l121 59 0 83 0 83 -89 0 c-83 0 -91 -2
-109 -25z m23 5 c-4 -6 22 -10 69 -10 l76 0 0 -60 c0 -49 -3 -61 -20 -70 -11
-6 -18 -15 -15 -20 4 -6 -1 -7 -11 -3 -12 4 -15 3 -10 -5 5 -8 1 -10 -10 -5
-12 4 -15 3 -10 -5 5 -8 1 -10 -10 -5 -12 4 -15 3 -10 -5 5 -8 1 -10 -10 -5
-12 4 -15 3 -10 -5 5 -8 1 -10 -10 -5 -12 4 -15 3 -10 -5 5 -8 1 -10 -10 -5
-12 4 -15 3 -10 -5 5 -8 1 -10 -10 -5 -12 4 -15 3 -10 -5 5 -8 1 -10 -10 -5
-12 4 -15 3 -10 -5 5 -8 1 -10 -10 -5 -13 5 -15 3 -9 -7 5 -8 4 -11 -3 -6 -16
10 -294 -132 -286 -146 4 -7 3 -8 -4 -4 -6 4 -34 -5 -62 -19 -31 -16 -57 -23
-64 -18 -6 4 -3 0 7 -10 11 -9 15 -17 10 -17 -6 0 -17 8 -27 19 -15 16 -15 19
-1 31 9 7 13 15 10 18 -8 8 16 32 27 26 11 -7 40 15 33 26 -3 4 3 14 12 21 12
10 14 10 9 2 -10 -18 9 -16 24 2 7 8 9 15 4 15 -4 0 -2 6 4 12 7 7 20 13 30
13 9 0 17 6 17 14 0 8 9 15 19 17 11 1 29 13 40 25 20 21 20 22 1 8 -18 -13
-19 -13 -7 3 8 9 19 15 26 12 7 -3 21 6 32 18 19 23 19 23 -1 8 -18 -14 -19
-14 -6 2 7 10 17 15 23 12 11 -7 40 15 33 26 -3 4 3 14 12 21 12 10 14 10 9 2
-10 -18 9 -16 24 2 7 8 9 15 5 15 -4 0 -2 6 5 14 6 8 17 13 24 10 7 -3 21 6
32 18 19 23 19 23 -1 8 -17 -12 -18 -12 -7 0 7 8 20 15 30 15 9 0 17 5 17 10
0 12 14 35 21 35 3 0 2 -4 -1 -10z"/>
<path d="M963 428 c-11 -13 -18 -29 -15 -37 2 -8 0 -11 -6 -7 -19 11 -25 -14
-25 -104 0 -90 6 -115 25 -104 7 5 9 1 5 -9 -3 -8 1 -21 9 -27 8 -7 14 -9 14
-5 0 4 11 -4 24 -18 45 -49 151 -49 219 1 22 16 41 36 43 44 1 9 -60 77 -135
152 l-137 137 -21 -23z m287 -257 c0 -2 -3 -1 -7 2 -6 7 -38 -31 -38 -45 0 -3
-4 -10 -9 -15 -6 -5 -6 -2 -1 6 6 11 4 13 -11 6 -43 -18 -119 -17 -159 1 -22
10 -45 18 -52 19 -6 0 -15 4 -20 9 -4 5 -3 6 5 2 17 -10 15 -2 -8 36 -25 41
-27 126 -4 169 8 17 13 33 10 37 -3 3 2 14 11 24 16 18 22 14 150 -114 73 -73
133 -135 133 -137z"/>
</g>
</svg>
