<?xml version="1.0" standalone="no"?>
<!DOCTYPE svg PUBLIC "-//W3C//DTD SVG 20010904//EN"
 "http://www.w3.org/TR/2001/REC-SVG-20010904/DTD/svg10.dtd">
<svg version="1.0" xmlns="http://www.w3.org/2000/svg"
 width="276.000000pt" height="300.000000pt" viewBox="0 0 276.000000 300.000000"
 preserveAspectRatio="xMidYMid meet">
<metadata>
Created by potrace 1.16, written by Peter Selinger 2001-2019
</metadata>
<g transform="translate(0.000000,300.000000) scale(0.100000,-0.100000)"
fill="#000000" stroke="none">
<path d="M54 2965 c-18 -20 -31 -42 -28 -50 3 -7 1 -22 -6 -32 -9 -15 -10 -14
-4 7 3 14 3 22 0 18 -4 -3 -7 -118 -8 -255 0 -249 7 -318 36 -343 8 -6 12 -19
9 -27 -5 -12 -2 -15 10 -10 9 3 19 1 23 -5 5 -7 2 -8 -6 -3 -9 6 -11 4 -5 -4
12 -20 71 -41 107 -40 32 2 32 2 -7 9 l-40 7 37 2 c20 0 39 7 41 14 4 10 6 10
6 0 2 -21 75 -16 105 8 14 11 25 26 24 32 -1 7 4 23 12 37 7 14 17 66 20 115
l7 90 1 -80 c2 -63 -2 -90 -18 -120 -19 -39 -19 -39 0 -17 25 30 32 70 28 152
-2 43 -7 65 -15 66 -7 1 -37 3 -65 4 l-53 3 55 7 55 7 -60 -1 -60 -1 -3 -80
c-3 -65 -7 -84 -24 -100 -11 -11 -18 -14 -14 -7 5 8 -1 12 -17 12 -14 0 -28 7
-31 16 -3 9 -6 114 -6 234 0 211 1 220 21 230 32 18 49 -4 50 -64 0 -28 4 -60
8 -71 5 -11 6 10 3 50 -2 39 -9 79 -14 90 -9 20 -9 20 6 1 9 -12 16 -39 16
-65 0 -83 6 -91 64 -93 l51 -1 -55 -7 -55 -7 52 -1 c67 -2 76 13 72 117 -3 64
-9 85 -32 119 -15 23 -25 42 -22 42 2 0 17 -19 32 -42 23 -34 29 -56 34 -127
l6 -86 1 73 c2 82 -11 122 -57 174 -31 35 -32 36 -116 37 -47 1 -95 -4 -106
-10 -15 -8 -19 -8 -15 0 16 25 -19 8 -50 -24z"/>
<path d="M551 2955 c-5 -22 -15 -78 -22 -125 -11 -69 -14 -80 -20 -55 -7 30
-7 30 -8 3 -1 -16 6 -31 17 -37 9 -6 12 -11 6 -11 -5 0 -15 -21 -22 -47 -15
-62 -52 -279 -62 -363 -4 -36 -8 -59 -9 -51 0 8 -4 11 -8 8 -16 -16 31 -47 72
-47 46 0 85 30 85 67 0 11 3 35 6 52 6 28 10 31 45 31 27 0 39 -5 42 -17 2
-10 4 -6 2 9 -3 45 12 22 19 -29 4 -27 10 -56 13 -67 4 -14 2 -16 -8 -11 -8 5
-6 -1 4 -12 24 -28 127 -39 127 -14 0 3 -21 6 -47 5 -31 -1 -36 0 -13 3 19 2
42 7 50 10 8 3 20 7 25 7 12 2 12 1 -14 151 -12 66 -28 156 -36 200 -46 262
-64 348 -75 358 -10 9 -11 9 -5 -2 9 -16 39 -176 104 -552 11 -63 23 -123 27
-134 5 -11 4 -16 -3 -12 -5 3 -15 39 -22 79 -59 340 -103 575 -112 608 l-11
35 -68 0 -69 0 -10 -40z"/>
<path d="M898 2983 c-5 -7 -8 -18 -5 -25 4 -8 6 -7 6 4 1 9 5 19 10 23 6 3 7
-6 2 -22 -7 -27 -5 -669 2 -708 3 -16 13 -21 49 -23 40 -3 49 1 67 25 21 26
22 34 17 193 -3 91 -10 184 -15 208 -5 23 -6 40 -3 37 14 -13 49 -214 39 -224
-6 -6 -3 -45 8 -110 10 -56 20 -99 23 -97 2 3 -4 48 -13 101 -10 53 -15 98
-13 100 5 5 44 -205 40 -217 -3 -11 32 -27 51 -24 19 2 30 12 34 29 20 87 33
174 30 188 -3 11 0 16 8 12 9 -3 12 2 9 14 -3 10 1 45 9 77 13 58 13 57 15
-105 2 -90 6 -167 10 -171 4 -4 5 84 2 195 -3 111 -3 213 1 227 4 14 8 -76 10
-200 1 -124 2 -232 3 -240 1 -11 14 -15 56 -15 l55 0 3 140 c2 77 8 145 13
151 9 11 16 441 6 450 -2 3 -5 -95 -6 -217 0 -122 -3 -225 -6 -227 -4 -4 -10
417 -7 458 0 3 -37 4 -83 2 l-84 -3 -7 -37 c-3 -20 -15 -82 -26 -137 -10 -55
-21 -111 -23 -125 -3 -14 -8 -45 -12 -70 l-8 -45 -12 40 c-7 22 -20 83 -29
135 -9 52 -18 102 -21 110 -3 8 -8 33 -10 54 -2 22 -9 49 -14 60 -10 21 -10
21 5 2 9 -11 17 -34 18 -50 2 -49 3 -54 10 -61 11 -11 -3 89 -15 108 -10 16
-27 19 -100 20 -59 1 -92 -2 -99 -10z"/>
<path d="M1509 2979 c-4 -9 -8 -137 -9 -285 0 -148 -2 -281 -4 -296 -2 -15 0
-25 5 -23 4 3 8 103 9 222 0 119 3 219 5 221 2 3 6 -122 7 -276 2 -155 0 -278
-4 -274 -4 4 -8 25 -11 47 l-4 40 -1 -41 c-2 -31 3 -46 23 -64 23 -22 30 -23
166 -21 79 1 146 4 149 6 12 8 19 73 11 102 -7 27 -9 28 -97 34 l-89 5 87 2
c80 2 88 0 102 -20 9 -12 16 -18 16 -12 0 6 -8 18 -18 27 -14 13 -38 17 -100
17 -58 0 -82 4 -83 13 -1 6 -4 1 -9 -13 -4 -16 -8 14 -9 78 -1 75 2 104 11
107 7 2 42 5 78 7 61 3 65 4 67 28 l2 25 -9 -25 c-8 -23 -9 -22 -8 10 2 73 5
70 -72 70 l-70 0 0 54 c0 30 5 58 10 61 6 3 10 15 10 26 0 17 7 19 63 19 93 0
104 6 112 51 4 21 4 51 1 66 l-7 28 -160 0 c-138 0 -162 -2 -170 -16z"/>
<path d="M1929 2984 c-5 -6 -9 -162 -9 -364 0 -412 -6 -391 94 -388 l61 1 -60
7 -60 7 58 1 57 2 0 144 c0 142 7 173 32 148 6 -6 16 -32 24 -59 7 -26 24 -86
38 -133 14 -46 23 -86 21 -89 -3 -2 -7 2 -9 10 -11 33 -49 168 -58 209 -6 25
-13 39 -15 32 -3 -7 7 -49 21 -95 14 -45 28 -95 32 -112 11 -51 41 -75 94 -75
60 0 84 22 70 65 l-10 30 5 -32 c2 -18 -1 -35 -7 -39 -6 -4 -8 -3 -5 3 3 5 2
25 -3 44 -9 38 -53 196 -69 247 -6 19 -6 30 0 27 5 -4 9 -14 9 -23 0 -9 5 -24
10 -32 8 -11 9 -8 4 12 -5 22 1 36 30 70 20 23 35 51 35 62 -2 20 -2 20 -6 1
-2 -11 -18 -36 -35 -55 l-30 -35 28 39 c50 71 45 254 -10 323 -11 15 -15 23
-8 19 8 -5 22 -22 33 -40 10 -17 19 -26 19 -19 0 18 -49 72 -81 88 -31 17 -43
19 -36 8 3 -5 -16 -7 -41 -6 -159 8 -214 7 -223 -3z m155 -171 c-1 -63 -1 -64
3 -10 4 58 4 59 31 52 32 -8 27 -2 40 -50 l11 -40 -5 38 c-3 21 -8 46 -11 55
-3 9 -3 14 2 10 4 -4 13 -31 20 -60 6 -29 17 -53 23 -53 7 0 12 -4 11 -10 0
-5 -6 -9 -13 -7 -7 1 -17 -15 -23 -35 l-11 -38 4 40 4 40 -10 -32 c-9 -27 -16
-33 -39 -33 -16 0 -32 6 -35 13 -4 6 -4 2 -2 -11 2 -12 1 -20 -4 -17 -15 9
-11 215 4 215 1 0 1 -30 0 -67z"/>
<path d="M2475 2980 c-14 -15 -50 -211 -43 -232 2 -6 12 40 21 103 10 62 23
118 29 124 7 7 9 7 5 -1 -11 -19 -39 -215 -33 -230 3 -8 2 -13 -3 -10 -4 3
-16 -41 -26 -97 -10 -56 -26 -145 -36 -197 -9 -52 -16 -116 -15 -142 0 -27 -3
-43 -8 -38 -12 12 -3 97 28 270 15 80 28 159 31 175 l5 30 -10 -30 c-14 -39
-60 -304 -67 -378 -7 -76 10 -97 77 -97 53 0 49 -7 66 113 3 26 10 50 15 53 5
3 7 -1 4 -8 -10 -29 -21 -127 -13 -122 4 3 8 16 8 28 0 13 3 38 6 55 6 28 10
31 45 31 l38 0 7 -51 c9 -65 36 -95 90 -102 23 -3 47 -2 53 2 12 8 8 281 -4
301 -3 5 -23 106 -44 225 -21 119 -43 221 -49 227 -18 18 -161 16 -177 -2z"/>
<path d="M479 1883 c-57 -51 -69 -80 -69 -162 0 -68 -1 -71 -29 -86 -17 -8
-33 -20 -37 -26 -5 -8 -3 -9 6 -4 8 5 11 4 6 -3 -4 -6 -13 -9 -20 -6 -16 6
-63 -47 -87 -101 -17 -37 -19 -82 -19 -675 0 -599 1 -637 19 -676 10 -23 23
-44 28 -47 6 -4 -1 15 -14 40 l-23 46 0 637 0 636 25 51 c14 28 35 59 47 69
17 15 16 12 -5 -17 -59 -79 -57 -52 -57 -739 0 -671 0 -669 48 -724 9 -11 11
-16 5 -12 -21 12 -14 -9 10 -32 25 -24 43 -29 31 -10 -4 7 -3 8 5 4 6 -4 9
-11 6 -16 -3 -5 3 -14 14 -19 25 -14 34 -14 26 -1 -4 7 3 7 20 0 36 -14 1904
-14 1940 0 17 7 24 7 20 0 -8 -13 1 -13 26 1 11 5 17 14 14 19 -3 5 0 12 6 16
8 4 9 3 5 -4 -13 -21 10 -13 32 11 24 26 29 42 9 31 -6 -4 -4 1 5 12 48 55 48
53 48 724 0 687 2 660 -57 739 -21 29 -22 32 -5 17 12 -10 33 -41 47 -69 l25
-51 0 -636 0 -637 -23 -46 c-13 -25 -20 -44 -14 -40 5 3 18 24 28 47 18 39 19
77 19 674 0 688 2 663 -57 740 -25 34 -107 92 -127 92 -6 -1 6 -10 26 -20 20
-11 39 -24 43 -29 3 -6 -16 2 -42 17 -48 27 -49 27 -293 32 -153 3 -221 7
-180 10 l65 7 -63 1 c-40 1 -64 7 -67 15 -33 95 -53 136 -82 168 -34 37 -62
53 -47 27 4 -8 3 -10 -2 -5 -5 5 -9 14 -9 20 0 5 -6 12 -14 15 -8 3 -11 0 -7
-6 4 -6 -2 -8 -15 -5 -11 3 -16 9 -11 12 6 3 -117 6 -273 6 -156 0 -279 -3
-273 -6 5 -3 0 -9 -11 -12 -13 -3 -19 -1 -15 5 4 6 1 9 -7 6 -8 -3 -14 -10
-14 -15 0 -6 -4 -15 -9 -20 -5 -5 -6 -3 -2 5 15 26 -13 10 -47 -27 -29 -32
-49 -73 -82 -168 -2 -7 -15 -13 -27 -14 -22 -1 -22 -1 2 -9 24 -8 23 -8 -7 -9
l-33 -1 0 64 c0 76 -11 110 -48 149 -32 34 -68 56 -57 35 3 -7 -1 -4 -9 6 -9
11 -16 16 -16 10 0 -5 -42 -9 -95 -9 -52 0 -95 3 -95 8 0 16 -22 5 -61 -30z
m666 -133 c-3 -5 -1 -10 4 -10 6 0 11 5 11 10 0 6 82 10 225 10 143 0 225 -4
225 -10 0 -5 5 -10 11 -10 5 0 7 6 3 13 -6 9 -3 8 9 -1 8 -8 30 -56 47 -107
17 -52 41 -107 52 -122 l21 -28 -25 25 c-16 16 -38 62 -58 123 -18 54 -34 97
-36 94 -2 -2 10 -46 27 -98 23 -71 39 -102 65 -126 l34 -33 267 2 268 3 -270
5 -270 5 271 3 c242 2 273 0 278 -14 4 -9 13 -14 21 -10 9 3 22 -5 32 -21 17
-25 18 -74 21 -598 2 -313 0 -589 -3 -612 -3 -23 -15 -52 -26 -65 l-20 -23 18
30 c17 27 18 70 21 600 2 313 0 589 -3 611 -3 23 -13 50 -21 60 -14 17 -14 17
-2 -6 10 -20 13 -152 13 -632 l0 -607 -23 -23 -23 -23 -924 0 -924 0 -23 23
-23 23 0 607 c0 480 3 612 13 632 12 23 12 23 -2 6 -8 -10 -18 -37 -21 -60 -3
-22 -5 -298 -3 -611 3 -530 4 -573 21 -600 l18 -30 -20 23 c-11 13 -23 42 -26
65 -3 23 -5 299 -3 612 3 524 4 573 21 598 10 16 23 24 32 21 8 -4 17 1 21 10
5 14 36 16 278 14 l271 -3 -270 -5 -270 -5 268 -3 267 -2 34 33 c26 24 42 55
65 126 17 52 29 96 27 98 -2 3 -18 -40 -36 -94 -20 -61 -42 -107 -58 -123
l-25 -25 21 28 c11 15 33 65 47 110 26 78 49 127 61 127 3 0 2 -4 -1 -10z
m692 -1607 c-252 -2 -662 -2 -910 0 -249 1 -43 2 458 2 501 0 704 -1 452 -2z"/>
<path d="M1290 1470 c25 -8 25 -8 -5 -10 -16 -2 -48 -4 -70 -5 -44 -2 -169
-60 -160 -75 3 -5 0 -12 -6 -16 -8 -4 -9 -3 -5 4 4 7 2 12 -3 12 -20 0 -166
-155 -189 -200 -12 -25 -17 -36 -10 -26 50 73 110 145 148 175 31 25 23 14
-27 -36 -112 -113 -183 -279 -183 -428 0 -110 53 -268 118 -355 14 -19 18 -29
8 -21 -9 8 -29 34 -43 58 -32 55 -42 57 -11 2 26 -46 134 -169 149 -169 6 0 7
6 3 13 -5 8 -2 8 9 -2 20 -16 23 -26 5 -15 -9 5 -9 2 1 -9 15 -19 36 -23 25
-5 -4 7 -3 8 5 4 6 -4 9 -12 5 -17 -9 -15 134 -77 216 -95 90 -19 210 -13 291
15 77 26 161 70 154 81 -3 5 0 12 6 16 8 4 9 3 5 -4 -11 -18 10 -14 25 5 10
11 10 14 2 9 -19 -11 -16 -1 4 15 11 10 14 10 9 2 -4 -7 -3 -13 3 -13 15 0
124 124 150 171 29 54 17 42 -31 -31 -21 -30 -54 -71 -74 -90 -26 -24 -21 -15
15 25 94 108 161 277 161 410 0 132 -66 300 -160 410 l-52 60 55 -58 c56 -59
104 -139 138 -230 10 -28 17 -38 14 -22 -17 92 -174 325 -211 311 -7 -3 -18 3
-26 12 -12 16 -11 16 7 2 20 -15 20 -14 1 8 -20 23 -43 31 -30 10 4 -7 3 -8
-5 -4 -6 4 -9 11 -6 16 9 15 -116 73 -160 75 -22 1 -71 5 -110 9 -139 13 -181
15 -155 6z m178 -157 c18 -4 20 -8 10 -14 -10 -7 -9 -9 5 -9 9 0 17 5 17 12 0
6 9 2 20 -10 12 -12 26 -22 32 -22 7 0 3 7 -8 15 -10 8 -16 15 -12 15 4 0 19
-11 34 -25 15 -14 34 -23 41 -21 7 3 12 0 10 -6 -1 -6 4 -13 12 -16 9 -3 11 0
6 9 -5 8 -4 11 1 6 5 -5 9 -14 9 -20 0 -5 6 -12 14 -15 9 -3 11 0 6 9 -4 8 13
-6 39 -31 29 -28 62 -76 87 -126 34 -67 42 -94 46 -160 10 -142 -30 -255 -124
-352 -31 -31 -50 -49 -43 -39 8 11 9 17 2 17 -11 0 -27 -19 -27 -32 0 -3 -4
-10 -9 -15 -5 -5 -6 -3 -2 5 10 17 2 15 -52 -12 -116 -58 -263 -61 -378 -7
-75 35 -78 36 -68 19 4 -8 3 -10 -2 -5 -5 5 -9 12 -9 15 0 13 -16 32 -27 32
-7 0 -6 -6 2 -17 7 -10 -12 8 -43 39 -170 176 -171 449 0 626 30 31 51 51 47
43 -4 -9 -2 -12 7 -9 8 3 14 10 14 15 0 6 4 15 9 20 5 5 6 2 1 -6 -5 -9 -3
-12 6 -9 8 3 13 11 11 17 -1 7 2 10 8 6 5 -3 18 -1 27 5 16 10 16 11 -2 5 -29
-9 -6 9 30 23 28 11 28 11 11 -3 -11 -8 -15 -15 -8 -15 6 0 19 9 29 19 10 11
29 21 43 24 39 7 153 7 178 0z"/>
<path d="M1303 1197 c7 -5 1 -7 -15 -4 -15 2 -25 1 -23 -3 2 -4 -8 -12 -23
-19 -25 -11 -26 -10 -8 4 23 17 14 20 -15 4 -11 -5 -17 -14 -14 -19 3 -5 0
-12 -6 -16 -8 -4 -9 -3 -5 4 4 7 3 12 -2 12 -14 0 -107 -102 -126 -138 -27
-52 -18 -50 13 3 16 28 46 66 67 85 33 31 32 28 -9 -18 -66 -76 -90 -146 -85
-247 5 -94 26 -142 96 -219 l46 -51 -43 40 c-23 22 -56 63 -72 90 -31 53 -40
55 -13 3 37 -71 181 -195 202 -174 3 3 1 6 -4 6 -6 0 -19 7 -30 15 -13 11 -9
11 16 -2 27 -14 58 -18 135 -18 77 0 108 4 135 18 25 13 29 13 16 2 -11 -8
-24 -15 -30 -15 -5 0 -7 -3 -4 -6 21 -21 165 103 202 174 27 52 18 50 -13 -3
-16 -27 -48 -68 -72 -90 -39 -37 -39 -35 8 18 123 137 125 322 6 459 -41 46
-42 49 -9 18 21 -19 51 -57 67 -85 31 -53 40 -55 13 -3 -19 36 -112 138 -126
138 -5 0 -6 -5 -2 -12 4 -7 3 -8 -5 -4 -6 4 -9 11 -6 16 3 5 -3 14 -14 19 -29
16 -38 13 -15 -3 14 -12 8 -11 -28 2 -28 10 -42 19 -33 22 8 3 -30 5 -84 5
-55 0 -94 -4 -88 -8z m117 -147 c8 -5 11 -10 5 -10 -9 -1 52 -30 62 -30 2 0 1
6 -3 13 -4 6 -4 9 0 5 4 -3 6 -8 4 -10 -1 -2 9 -19 25 -37 15 -18 30 -43 33
-56 7 -28 1 -121 -10 -150 -4 -12 -1 -10 8 5 25 41 21 135 -9 187 -14 23 -24
43 -21 43 3 0 17 -21 32 -46 20 -34 27 -59 27 -98 0 -49 -27 -125 -40 -112 -9
8 -44 -25 -38 -35 3 -4 0 -11 -6 -15 -8 -5 -9 -3 -4 6 6 10 4 11 -11 4 -25
-11 -153 -11 -178 0 -15 8 -18 6 -11 -5 5 -8 5 -11 -1 -6 -5 5 -8 12 -7 15 3
11 -29 42 -38 36 -16 -9 -42 61 -42 112 0 39 7 64 27 98 15 25 29 46 32 46 3
0 -7 -20 -21 -43 -30 -52 -34 -146 -9 -187 9 -15 12 -17 8 -5 -11 29 -17 122
-10 150 3 13 17 37 31 53 13 16 22 32 19 35 -3 3 0 8 7 13 8 4 10 3 5 -4 -4
-7 -5 -12 -3 -12 10 0 71 29 62 30 -18 1 20 20 40 20 11 0 27 -5 35 -10z"/>
<path d="M2143 1383 c-10 -10 -12 -14 -3 -8 10 6 9 3 -4 -12 -10 -12 -23 -21
-30 -20 -6 1 -12 -13 -14 -32 -3 -26 3 -40 24 -62 15 -16 32 -29 37 -29 5 0
-5 12 -22 26 -25 21 -31 33 -30 62 l1 37 8 -38 c4 -21 14 -46 23 -54 22 -22
72 -20 98 3 17 15 20 27 16 63 -3 27 -2 38 4 30 19 -31 10 -77 -22 -103 -17
-14 -27 -26 -23 -26 4 0 21 12 36 27 30 29 38 78 16 104 -17 20 -54 47 -45 33
4 -7 -5 -9 -26 -5 -31 4 -31 5 -7 12 22 6 23 7 4 8 -12 1 -30 -7 -41 -16z"/>
<path d="M534 1358 c-20 -39 -17 -82 7 -104 27 -24 170 -32 209 -12 39 21 51
55 35 95 -17 41 -11 43 10 4 18 -36 8 -69 -31 -100 -15 -11 -22 -21 -17 -21
14 0 60 52 67 75 6 20 -26 85 -41 85 -5 1 -57 2 -117 3 l-108 2 -14 -27z"/>
</g>
</svg>
