<?xml version="1.0" standalone="no"?>
<!DOCTYPE svg PUBLIC "-//W3C//DTD SVG 20010904//EN"
 "http://www.w3.org/TR/2001/REC-SVG-20010904/DTD/svg10.dtd">
<svg version="1.0" xmlns="http://www.w3.org/2000/svg"
 width="300.000000pt" height="296.000000pt" viewBox="0 0 300.000000 296.000000"
 preserveAspectRatio="xMidYMid meet">
<metadata>
Created by potrace 1.16, written by Peter Selinger 2001-2019
</metadata>
<g transform="translate(0.000000,296.000000) scale(0.100000,-0.100000)"
fill="#000000" stroke="none">
<path d="M167 2938 c-21 -10 -35 -23 -32 -28 3 -5 0 -12 -6 -16 -8 -4 -9 -3
-5 4 11 19 -9 14 -27 -6 -10 -10 -14 -22 -10 -27 5 -4 3 -5 -4 -1 -7 4 -25
-12 -45 -41 l-33 -48 -1 -150 c-2 -166 0 -175 74 -257 33 -36 61 -52 46 -25
-4 7 -3 9 2 4 5 -5 9 -14 9 -19 0 -6 6 -13 14 -16 9 -3 11 0 6 9 -5 8 -4 11 1
6 5 -5 9 -14 9 -20 0 -23 96 -48 170 -44 73 4 172 38 161 56 -4 5 -1 13 5 17
8 4 9 3 5 -4 -15 -24 11 -11 42 21 l33 34 -4 114 -3 114 -2 -116 c-2 -107 -4
-117 -25 -135 -22 -19 -22 -19 -4 2 14 17 17 40 17 132 l0 112 -150 0 c-143 0
-150 -1 -150 -20 0 -19 7 -20 123 -22 l122 -2 -125 -6 -125 -6 123 -2 122 -2
2 -77 2 -78 6 90 6 90 2 -86 c2 -71 -1 -89 -15 -100 -14 -12 -16 -12 -9 0 6 9
4 12 -5 9 -8 -3 -14 -10 -14 -16 0 -5 -4 -14 -9 -19 -5 -5 -6 -3 -2 5 4 6 4
12 1 12 -13 0 -50 -23 -58 -36 -10 -18 -90 -28 -124 -16 -15 6 -21 11 -13 12
8 0 -10 9 -40 20 -66 23 -63 23 -54 8 5 -7 3 -8 -5 -4 -7 5 -10 10 -7 13 3 3
-12 25 -33 49 -86 98 -89 284 -6 381 18 21 33 42 33 46 0 5 4 12 8 15 4 4 4 1
-1 -7 -5 -9 -3 -12 6 -9 8 3 13 9 12 14 -2 10 6 11 123 20 70 5 89 3 129 -15
56 -25 59 -25 49 -8 -4 6 2 3 14 -7 26 -23 29 -34 5 -15 -15 11 -14 10 1 -9
24 -27 38 -28 61 -2 18 20 18 21 -15 55 -33 34 -59 48 -44 23 4 -7 3 -8 -5 -4
-6 4 -9 11 -6 16 13 21 -45 34 -165 36 -107 1 -131 -1 -163 -18z"/>
<path d="M896 2936 c-3 -12 -64 -160 -135 -331 -123 -294 -129 -310 -108 -314
21 -3 21 -4 2 -12 -18 -8 -17 -8 5 -6 15 1 25 8 25 17 0 19 66 182 72 177 2
-2 -12 -42 -32 -87 -19 -46 -30 -79 -25 -74 5 5 21 36 34 69 l24 60 166 3 166
2 16 -40 c9 -23 18 -39 21 -37 2 2 -6 26 -17 52 -11 26 -19 50 -17 52 6 5 72
-158 72 -177 0 -9 10 -16 25 -17 23 -2 23 -2 5 6 -19 9 -19 10 3 10 12 1 25 7
28 14 5 13 -240 612 -258 632 -12 13 -10 9 131 -329 67 -159 120 -293 119
-297 -2 -4 -63 138 -137 316 -115 277 -137 324 -157 328 -17 3 -24 -2 -28 -17z
m108 -240 c36 -88 64 -161 62 -163 -2 -2 -14 21 -26 52 -12 31 -24 54 -27 52
-2 -2 6 -25 17 -51 11 -26 20 -50 20 -52 0 -2 -57 -4 -126 -4 -112 0 -125 2
-120 16 3 9 31 77 62 151 31 74 54 136 52 138 -2 3 -33 -65 -67 -151 -35 -85
-65 -153 -67 -151 -2 2 29 83 68 180 49 118 75 170 80 159 3 -9 36 -89 72
-176z"/>
<path d="M1338 2952 l-28 -3 0 -330 c0 -322 0 -329 20 -329 20 0 20 7 20 292
0 160 3 289 6 285 3 -3 5 -135 4 -293 0 -159 1 -286 4 -283 3 3 6 121 7 263 0
141 3 256 5 254 9 -9 207 -495 209 -513 2 -24 30 -27 30 -4 0 9 52 143 115
297 l115 280 3 -289 c2 -281 3 -289 22 -289 20 0 20 8 20 329 l0 329 -28 4
c-28 4 -29 2 -122 -227 -52 -126 -105 -255 -118 -285 l-24 -54 -70 169 c-38
94 -90 222 -116 285 -45 110 -48 115 -74 112z"/>
<path d="M2641 2939 c-43 -26 -82 -83 -88 -128 -15 -108 43 -163 233 -222 50
-16 102 -38 116 -49 14 -10 28 -17 31 -13 4 3 11 -7 17 -23 14 -37 4 -92 -22
-124 l-20 -25 15 26 c21 35 30 89 20 117 -7 17 -9 9 -9 -32 0 -43 -5 -60 -22
-79 -12 -13 -19 -27 -15 -31 4 -4 1 -5 -7 -2 -8 3 -31 1 -50 -3 -21 -6 -27
-10 -15 -11 17 -1 17 -3 -5 -11 -27 -11 -106 -4 -130 11 -10 6 -1 8 25 5 34
-4 36 -3 10 3 -16 5 -40 14 -52 20 -28 15 -36 15 -27 0 5 -9 2 -9 -9 1 -20 16
-23 25 -4 15 6 -4 -3 8 -20 27 l-33 34 -27 -28 -27 -27 34 -36 c19 -20 58 -48
85 -62 43 -23 62 -27 135 -27 93 0 142 18 190 70 22 24 25 35 27 123 1 93 0
98 -25 125 -35 37 -86 63 -192 97 -47 15 -94 31 -104 35 -15 7 -17 5 -11 -6 5
-8 -4 -3 -18 10 -40 36 -38 99 4 143 17 18 27 27 23 19 -6 -11 -3 -12 12 -5
24 11 161 12 193 0 18 -6 22 -5 16 4 -5 9 -4 11 4 6 6 -4 9 -11 7 -15 -3 -4 8
-21 24 -36 28 -27 31 -27 48 -12 34 31 12 81 -53 115 -46 24 -244 25 -284 1z"/>
<path d="M2050 2620 l0 -330 200 0 c193 0 200 1 200 20 0 19 -7 20 -170 20
l-170 0 0 130 0 130 168 2 167 2 -170 6 -170 6 168 2 c160 2 167 3 167 22 0
19 -7 20 -167 22 l-168 2 170 6 170 6 -167 2 -168 2 0 105 0 105 168 2 167 2
-170 6 -170 6 173 2 172 2 0 25 0 25 -200 0 -200 0 0 -330z"/>
<path d="M832 1995 c-18 -8 -31 -19 -28 -24 4 -5 1 -13 -5 -17 -8 -4 -9 -3 -5
4 4 7 3 12 -2 12 -9 0 -41 -34 -57 -60 -6 -9 0 -4 13 10 19 21 18 17 -8 -34
-50 -96 -38 -179 38 -261 l37 -40 -38 35 c-51 46 -69 82 -77 155 l-7 60 -2
-48 c0 -26 6 -64 14 -85 18 -42 77 -107 117 -128 29 -15 52 -19 30 -5 -7 4 10
6 40 5 29 -2 144 -5 255 -8 169 -3 205 -6 218 -20 19 -19 39 -21 30 -3 -4 6 7
-3 24 -21 24 -25 31 -41 30 -70 l-2 -37 -6 43 c-4 23 -16 50 -26 60 -17 16
-17 16 -1 -8 9 -13 16 -35 16 -47 0 -19 -6 -23 -32 -24 l-33 -2 35 -8 c30 -7
27 -7 -18 -5 -30 2 -48 0 -42 -4 8 -5 4 -9 -9 -13 -13 -3 -19 -1 -15 5 4 6 1
8 -7 6 -8 -3 -13 -10 -12 -16 2 -6 -3 -9 -10 -6 -19 7 -93 -72 -114 -122 l-18
-44 -70 0 c-40 0 -92 -8 -122 -19 -29 -10 -50 -14 -47 -9 7 11 -3 10 -27 -3
-11 -5 -17 -14 -14 -19 3 -5 0 -12 -6 -16 -8 -4 -9 -3 -5 4 14 23 -11 12 -35
-15 l-24 -28 25 20 25 20 -19 -22 c-10 -13 -23 -20 -28 -17 -10 7 -38 -14 -38
-28 0 -5 6 -6 13 -2 6 4 2 -4 -9 -17 -12 -13 -27 -34 -33 -46 -6 -13 -17 -22
-23 -20 -6 1 -13 -5 -15 -13 -4 -13 -3 -13 7 0 10 13 11 12 7 -5 -3 -11 -51
-141 -108 -290 -101 -267 -102 -271 -103 -360 -1 -78 3 -98 25 -146 15 -31 44
-76 65 -100 l38 -44 -37 34 c-20 19 -49 58 -64 87 -15 29 -29 51 -31 49 -8 -8
44 -92 85 -136 42 -44 75 -66 57 -37 -4 7 -3 8 5 4 6 -4 9 -11 6 -16 -3 -5 7
-16 23 -24 21 -11 60 -14 153 -13 68 2 133 6 144 11 16 6 17 6 5 -3 -11 -8
-12 -11 -2 -11 21 0 53 20 47 30 -3 5 0 12 6 16 8 4 9 3 5 -4 -11 -18 10 -14
25 5 12 15 12 16 -1 8 -9 -5 -8 0 4 13 21 25 36 31 16 7 -8 -9 -8 -15 -2 -15
6 0 26 19 45 42 49 62 56 80 13 33 l-37 -40 37 50 c20 28 42 48 48 46 6 -2 34
-7 61 -11 45 -7 47 -8 13 -9 -20 0 -49 4 -65 10 -22 8 -25 8 -16 -2 27 -27
176 -18 158 10 -3 5 0 13 6 17 8 4 9 3 5 -4 -4 -7 -3 -12 3 -12 5 0 27 20 48
45 37 45 37 45 103 45 66 0 66 0 103 -45 21 -25 43 -45 48 -45 6 0 7 5 3 12
-4 7 -3 8 5 4 6 -4 9 -12 6 -17 -18 -28 131 -37 158 -10 9 10 6 10 -16 2 -16
-6 -45 -10 -65 -10 -32 1 -31 2 14 9 29 4 57 10 62 14 6 4 16 -4 23 -16 7 -12
35 -47 63 -77 28 -30 44 -51 36 -46 -13 8 -13 7 -1 -8 15 -19 36 -23 25 -5 -4
7 -3 8 5 4 6 -4 9 -11 6 -16 -6 -10 26 -30 47 -30 10 0 9 3 -2 11 -12 9 -11 9
5 3 11 -5 76 -9 144 -11 93 -1 132 2 153 13 16 8 26 19 23 24 -3 5 0 12 6 16
8 4 9 3 5 -4 -4 -7 -3 -12 2 -12 19 0 105 103 130 158 23 49 27 70 27 147 0
58 -5 97 -13 110 l-14 20 8 -20 c3 -11 9 -54 11 -95 4 -61 1 -86 -17 -132 -11
-31 -30 -67 -40 -80 -11 -13 -5 4 13 41 44 90 49 180 14 277 -38 106 -39 113
-13 59 28 -56 34 -54 11 2 -32 75 -73 93 -113 50 -28 -29 -28 -38 4 -128 45
-130 15 -245 -81 -304 -60 -37 -167 -47 -229 -21 -46 19 -49 20 -40 4 5 -9 2
-9 -9 1 -20 16 -23 26 -4 15 6 -4 -5 11 -25 33 -50 56 -60 79 -54 116 l5 32
-11 -32 c-10 -29 -8 -37 16 -73 14 -22 24 -40 21 -40 -2 0 -17 18 -31 40 -25
37 -26 43 -15 85 14 57 2 110 -36 157 -24 29 -24 31 -4 13 13 -11 32 -38 42
-60 10 -22 19 -34 19 -27 0 39 -72 122 -123 141 -71 27 -153 0 -208 -69 -32
-39 -33 -40 -99 -40 -66 0 -67 1 -99 40 -55 69 -137 96 -208 69 -51 -19 -123
-102 -123 -141 0 -7 9 5 19 27 10 22 29 49 42 60 20 18 20 16 -4 -13 -38 -47
-50 -100 -36 -157 11 -42 10 -48 -15 -85 -14 -22 -29 -40 -31 -40 -3 0 7 18
21 40 24 36 26 44 16 73 l-11 32 5 -32 c6 -37 -4 -60 -54 -116 -20 -22 -31
-37 -24 -33 18 11 15 1 -5 -15 -11 -10 -14 -10 -9 -1 9 16 6 15 -40 -4 -27
-11 -60 -15 -110 -12 -138 7 -219 91 -219 228 0 58 12 95 102 337 57 150 109
285 117 300 15 29 62 76 106 108 19 13 20 16 5 11 -28 -10 -6 7 28 22 16 7 27
8 27 2 0 -6 5 -10 11 -10 5 0 8 4 5 9 -3 5 1 12 10 15 20 8 928 8 948 0 9 -3
13 -10 10 -15 -3 -5 -1 -9 5 -9 5 0 18 -3 28 -6 16 -6 16 -5 -2 10 -19 15 -18
15 13 5 17 -6 35 -15 38 -20 3 -5 -3 -6 -13 -3 -15 6 -15 4 2 -9 24 -20 39
-22 29 -4 -5 8 -2 8 9 -2 20 -16 23 -26 5 -15 -7 4 5 -13 28 -37 25 -27 51
-73 68 -116 43 -112 94 -142 139 -81 l20 27 -23 61 c-12 33 -24 59 -27 57 -2
-3 5 -28 17 -56 24 -62 24 -62 4 -87 -14 -18 -15 -18 -3 5 9 20 7 35 -17 95
-30 77 -46 108 -78 145 -12 13 -15 21 -8 17 6 -4 12 -3 12 2 0 14 -28 35 -38
28 -5 -3 -18 4 -28 17 l-19 22 25 -20 25 -20 -24 28 c-24 27 -49 38 -35 15 4
-7 3 -8 -5 -4 -6 4 -9 11 -6 16 3 5 -8 16 -24 25 -38 19 -51 20 -25 1 15 -12
8 -11 -28 2 -26 9 -43 19 -38 22 4 3 -30 3 -77 1 -64 -2 -88 0 -94 10 -7 12
-9 11 -9 -1 0 -8 -10 5 -21 30 -11 25 -37 63 -57 85 l-37 40 38 -35 c21 -19
47 -51 57 -70 11 -19 19 -30 20 -24 1 32 -94 137 -117 129 -7 -2 -12 1 -10 7
1 6 -4 13 -12 16 -8 2 -11 0 -7 -6 4 -6 -2 -8 -15 -5 -13 4 -17 8 -9 13 6 4
-12 6 -42 4 -45 -2 -48 -2 -18 5 l35 8 -31 2 c-29 1 -33 5 -43 47 -7 26 -14
44 -16 42 -3 -2 0 -20 5 -39 6 -18 10 -43 9 -54 -1 -11 -7 3 -14 30 -14 61
-29 90 -64 131 -14 16 -6 10 18 -15 24 -25 39 -37 33 -25 -6 11 -29 37 -52 57
-39 36 -57 47 -45 27 3 -5 -13 -3 -36 5 -31 11 -100 16 -273 17 l-231 2 230 6
230 6 -232 2 c-127 1 -239 5 -249 9 -13 5 -15 3 -9 -7 6 -9 4 -11 -4 -6 -7 5
-10 11 -7 14 3 3 -2 14 -11 25 -27 29 -24 109 5 139 12 14 19 27 16 31 -3 3 3
3 15 0 12 -3 21 -1 21 6 0 9 81 11 314 9 173 -2 309 0 303 4 -11 7 4 12 25 9
4 0 12 9 19 20 9 18 7 26 -8 48 -16 21 -29 26 -67 27 l-46 1 45 -4 c54 -5 85
-38 65 -70 -11 -17 -11 -17 -6 0 3 10 1 27 -4 38 -10 18 -25 19 -340 19 -208
0 -339 -4 -357 -11 -23 -8 -26 -8 -15 3 9 9 57 15 150 19 l137 5 -125 2 c-90
1 -134 -3 -158 -13z m796 -682 c6 -9 16 -14 25 -10 9 3 19 1 23 -5 5 -7 2 -8
-7 -2 -8 4 -3 -6 11 -23 14 -17 27 -29 29 -27 2 2 -2 10 -9 19 -7 9 -11 17 -8
20 2 2 12 -9 21 -25 l18 -29 -231 0 -231 0 18 29 c9 16 19 27 21 25 3 -3 -1
-11 -8 -20 -7 -9 -11 -17 -9 -19 2 -2 15 10 29 27 14 17 19 27 11 23 -9 -6
-12 -5 -8 2 4 5 15 8 26 5 11 -3 21 2 24 11 10 24 242 24 255 -1z"/>
<path d="M1076 1029 c2 -4 -3 -10 -12 -13 -9 -4 -13 -2 -8 5 5 8 1 8 -14 0
-27 -15 -62 -60 -62 -80 1 -9 7 -2 14 14 7 17 21 37 32 45 18 14 18 14 2 -5
-9 -11 -21 -32 -27 -47 -8 -20 -15 -26 -27 -21 -11 4 -15 2 -11 -4 4 -6 0 -14
-9 -17 -9 -4 -13 -2 -8 5 5 8 1 8 -14 0 -27 -15 -62 -60 -62 -80 1 -9 7 -2 14
14 7 17 21 37 32 45 18 14 18 14 1 -6 -31 -37 -40 -88 -22 -130 21 -51 17 -57
-6 -9 -10 22 -19 33 -19 25 0 -27 38 -79 72 -96 18 -9 37 -22 41 -28 5 -6 5 0
2 13 -5 17 -4 21 5 16 6 -4 10 -18 7 -31 -2 -14 0 -27 6 -31 6 -4 7 -1 2 7 -5
8 -4 11 3 6 6 -4 9 -13 6 -21 -6 -15 50 -55 76 -55 8 1 1 7 -16 14 -18 8 -35
20 -39 27 -5 7 2 5 16 -4 13 -10 44 -17 69 -18 34 0 40 -2 25 -9 -13 -6 -15
-9 -5 -9 26 -1 80 38 101 73 11 19 27 37 35 40 8 3 13 10 9 15 -3 5 0 13 6 17
8 4 9 3 5 -4 -4 -7 -3 -12 3 -12 19 0 63 69 68 107 6 45 -23 95 -76 130 -19
13 -42 36 -51 51 -32 51 -56 65 -114 66 -30 1 -52 -2 -50 -5z m74 -143 c0 -38
15 -56 50 -57 24 -2 24 -2 2 -6 -34 -6 -62 23 -64 66 l-1 36 -4 -34 c-6 -45
27 -81 74 -81 24 0 32 4 28 13 -4 6 0 4 9 -6 8 -11 12 -26 8 -35 -4 -12 -7
-13 -10 -3 -3 8 -7 9 -11 3 -3 -6 -20 -13 -36 -16 -24 -5 -26 -4 -10 3 13 6
15 10 6 10 -25 2 -61 -41 -61 -71 0 -39 -16 -35 -24 7 -4 19 -12 37 -18 41 -6
4 -8 3 -5 -3 11 -18 25 -93 17 -93 -4 0 -10 19 -14 41 -9 54 -23 79 -44 78
-14 0 -14 -2 3 -9 23 -10 10 -12 -22 -4 -35 10 -30 44 6 44 35 0 81 49 81 86
0 13 5 24 11 24 5 0 7 6 3 13 -5 8 -2 8 9 -2 10 -7 17 -27 17 -45z"/>
<path d="M1552 906 c-81 -71 -82 -145 -3 -220 53 -51 157 -46 202 11 13 17 13
17 -5 3 -16 -13 -16 -11 3 20 29 48 28 107 -4 156 l-25 39 31 -35 c17 -19 27
-26 21 -15 -10 21 -36 45 -61 60 -9 5 -12 4 -8 -3 5 -6 -1 -8 -14 -5 -11 3
-16 9 -11 12 6 3 -13 6 -41 6 -43 0 -58 -5 -85 -29z"/>
<path d="M1946 929 c2 -4 -3 -10 -12 -13 -9 -4 -13 -2 -8 5 5 8 1 8 -14 0 -32
-17 -71 -69 -77 -104 -7 -35 10 -92 24 -83 5 3 17 -7 26 -22 l18 -27 -24 20
-24 20 20 -24 c57 -67 159 -68 219 -3 17 19 21 54 17 129 0 12 -13 36 -28 55
-24 28 -24 30 -4 13 13 -11 30 -33 37 -50 8 -18 13 -23 14 -13 0 19 -66 98
-82 98 -5 0 -6 -4 -3 -10 3 -6 -1 -7 -9 -4 -9 3 -14 9 -12 13 2 3 -15 6 -39 6
-24 0 -41 -3 -39 -6z"/>
</g>
</svg>
