<?xml version="1.0" standalone="no"?>
<!DOCTYPE svg PUBLIC "-//W3C//DTD SVG 20010904//EN"
 "http://www.w3.org/TR/2001/REC-SVG-20010904/DTD/svg10.dtd">
<svg version="1.0" xmlns="http://www.w3.org/2000/svg"
 width="300.000000pt" height="161.000000pt" viewBox="0 0 300.000000 161.000000"
 preserveAspectRatio="xMidYMid meet">
<metadata>
Created by potrace 1.16, written by Peter Selinger 2001-2019
</metadata>
<g transform="translate(0.000000,161.000000) scale(0.100000,-0.100000)"
fill="#000000" stroke="none">
<path d="M2179 1578 c-87 -43 -180 -137 -220 -223 -25 -53 -32 -83 -36 -153
-5 -78 -8 -90 -34 -117 -71 -76 -62 -189 23 -261 19 -16 48 -53 64 -83 16 -30
48 -76 72 -102 51 -57 160 -131 182 -124 10 3 16 -2 17 -14 1 -14 -4 -18 -20
-15 -21 4 -21 4 -2 -5 32 -15 42 -13 41 11 -1 18 -16 31 -61 55 -55 28 -172
121 -178 140 -1 4 -6 7 -10 5 -4 -1 -7 6 -5 15 2 11 -2 17 -11 15 -9 -2 -11 3
-7 13 4 11 2 14 -6 9 -8 -5 -9 -2 -5 9 3 10 4 24 0 33 -5 13 -8 13 -15 2 -7
-9 -8 -6 -5 10 4 15 -1 26 -15 33 -16 9 -19 8 -13 -3 3 -7 -3 -1 -15 15 -12
15 -27 24 -33 20 -7 -4 -8 0 -4 11 4 11 3 15 -4 10 -8 -4 -9 1 -4 17 5 19 4
21 -4 9 -8 -11 -9 -2 -5 35 9 77 23 112 54 139 29 24 30 25 27 123 -2 54 -1
87 1 74 3 -20 7 -14 22 29 10 29 15 60 12 68 -3 10 -1 13 6 8 12 -7 38 32 33
53 -1 7 2 10 7 7 6 -3 26 12 46 34 20 22 36 37 36 33 0 -5 6 -1 13 7 7 8 17
16 22 17 6 1 37 14 70 27 33 14 71 26 85 27 l25 1 -25 8 c-42 13 -54 11 -121
-22z"/>
<path d="M2725 1490 c-28 -7 -28 -8 -5 -9 14 -1 38 -10 54 -20 17 -11 34 -17
39 -14 4 3 7 -1 6 -8 -1 -8 4 -27 11 -42 10 -20 16 -24 23 -15 5 8 6 2 3 -17
-5 -22 -4 -26 4 -15 7 11 9 3 6 -30 -3 -31 -2 -36 3 -15 4 17 7 -19 7 -80 0
-63 -3 -95 -7 -75 l-6 35 -2 -31 c-1 -29 19 -61 31 -49 2 2 15 -13 29 -34 15
-25 27 -35 31 -27 7 10 5 -26 -7 -124 -3 -25 -2 -31 5 -20 9 13 10 13 10 0 0
-13 1 -13 10 0 14 22 12 106 -4 143 -7 18 -27 44 -43 58 -29 24 -30 27 -29
114 0 116 -21 180 -79 240 -25 25 -48 44 -52 44 -4 -1 -21 -5 -38 -9z"/>
<path d="M1193 1083 c-62 -2 -103 -8 -103 -14 0 -6 5 -7 10 -4 7 4 10 -80 10
-244 0 -194 -3 -251 -12 -251 -9 0 -8 -4 2 -10 14 -9 7 -15 -15 -10 -7 1 -7
-2 0 -8 6 -6 63 -12 127 -14 64 -2 108 0 98 4 -11 4 -20 10 -20 13 0 6 23 1
59 -13 10 -4 12 -1 6 7 -5 10 -2 11 12 7 26 -8 94 51 130 111 22 37 28 62 31
130 7 128 -34 210 -133 268 -39 23 -44 24 -86 11 -30 -9 -36 -14 -21 -15 13
-1 21 -5 18 -9 -3 -5 10 -14 28 -20 41 -15 62 -37 80 -88 10 -25 15 -32 16
-19 l1 20 9 -20 c12 -28 12 -2 0 30 -6 16 -14 23 -22 19 -7 -5 -9 -2 -5 8 6
18 -35 62 -48 51 -4 -5 -4 -2 0 6 6 11 4 13 -8 8 -25 -9 -21 0 6 14 12 6 19 8
15 4 -4 -4 10 -20 32 -36 21 -16 44 -38 50 -49 6 -11 16 -17 22 -14 8 5 9 1 5
-10 -4 -11 -3 -15 4 -10 8 4 9 -1 4 -17 -5 -19 -4 -21 5 -9 8 12 10 6 6 -25
-4 -31 -4 -34 3 -15 7 18 9 1 9 -60 0 -63 -3 -77 -9 -55 -6 23 -7 19 -4 -20 3
-28 1 -42 -3 -32 -6 15 -10 11 -22 -20 -8 -21 -13 -45 -11 -53 2 -8 0 -12 -4
-8 -5 4 -23 -6 -42 -22 -42 -38 -65 -39 -31 -2 36 38 47 63 42 97 -4 26 -3 27
6 10 9 -18 10 -17 5 5 -2 14 -5 61 -6 105 l-2 80 -9 -105 c-5 -58 -9 -115 -9
-127 -1 -13 -5 -20 -10 -17 -5 3 -6 -3 -2 -13 3 -10 3 -15 -2 -11 -4 4 -21 -4
-37 -17 -16 -14 -39 -25 -51 -25 -19 -1 -18 -3 8 -16 26 -12 27 -14 5 -9 -14
3 -46 8 -72 12 l-48 6 -2 246 -2 246 -6 -260 -5 -260 -35 0 -35 0 -3 263 -2
262 82 1 c46 1 94 5 108 9 18 6 20 8 5 7 -11 -1 -66 -3 -122 -4z"/>
<path d="M340 1070 c0 -5 6 -9 13 -7 15 3 23 -343 8 -372 -10 -17 7 -55 32
-72 4 -3 7 -24 5 -45 l-3 -39 -23 38 c-13 20 -28 34 -34 31 -5 -3 -8 2 -6 12
2 12 -2 18 -11 16 -8 -2 -11 3 -8 11 7 17 -21 60 -33 52 -5 -3 -8 3 -7 12 1
24 -33 74 -45 67 -5 -3 -8 2 -6 12 2 12 -2 18 -10 16 -7 -1 -12 5 -10 15 2 10
-2 17 -9 16 -6 -2 -11 5 -10 15 1 23 -33 73 -45 66 -5 -3 -8 2 -6 12 2 12 -2
18 -11 16 -8 -2 -11 3 -8 12 7 17 -8 32 -17 18 -3 -5 57 -105 133 -222 101
-156 143 -214 159 -217 l22 -3 0 265 c0 170 -4 265 -10 265 -6 0 -10 -77 -10
-212 0 -116 -3 -209 -6 -206 -3 4 -6 100 -7 216 -2 203 -1 209 18 208 19 -1
20 -10 25 -271 l5 -270 3 273 c1 179 5 271 12 267 6 -3 10 -1 10 4 0 7 -23 11
-55 11 -30 0 -55 -4 -55 -10z"/>
<path d="M470 1069 c-12 -8 -11 -9 5 -7 19 3 20 -3 23 -241 2 -189 -1 -246
-10 -253 -10 -6 -10 -8 0 -8 6 0 12 -5 12 -11 0 -5 -4 -7 -10 -4 -5 3 -10 1
-10 -4 0 -6 21 -11 50 -11 29 0 50 5 50 11 0 5 -4 7 -10 4 -5 -3 -10 -1 -10 4
0 6 6 11 13 11 9 0 9 2 -1 9 -11 6 -13 51 -10 209 2 111 0 198 -4 194 -4 -4
-9 -102 -10 -217 -3 -179 -5 -210 -18 -210 -13 0 -16 38 -20 263 l-5 262 33 0
c21 0 35 -6 39 -16 5 -13 8 -13 15 -2 7 9 8 6 5 -10 -8 -33 2 -58 15 -40 7 9
8 7 5 -10 -3 -13 -1 -20 5 -16 6 4 8 -2 3 -17 -5 -20 -4 -21 5 -9 10 12 11 11
7 -8 -3 -14 -1 -20 6 -15 6 4 8 0 4 -10 -3 -10 -4 -24 0 -33 5 -13 8 -13 15
-2 7 9 8 6 5 -10 -8 -33 2 -58 15 -40 7 9 8 6 5 -10 -8 -33 2 -58 15 -40 7 9
8 6 5 -10 -8 -33 2 -58 15 -40 7 9 8 6 5 -10 -8 -33 2 -58 15 -40 7 9 8 5 4
-12 -9 -41 9 -56 24 -21 12 29 14 30 26 14 7 -10 13 -13 13 -8 0 6 -6 18 -13
28 -14 18 -15 17 -21 -4 -6 -17 -26 23 -90 182 -46 112 -88 203 -94 202 -6 -2
-11 2 -11 7 0 13 -91 13 -110 -1z"/>
<path d="M2766 1004 l-78 -74 -109 0 c-98 0 -109 2 -119 20 -8 15 -21 20 -50
20 -22 0 -40 -5 -40 -11 0 -5 4 -7 10 -4 5 3 7 0 4 -8 -4 -12 -31 -15 -126
-16 -67 -1 -126 -3 -132 -4 -6 -1 -10 4 -8 11 1 8 -2 11 -9 6 -8 -5 -10 -2 -7
8 5 12 -30 46 -40 39 -1 -1 -13 11 -26 26 l-23 27 -13 -24 c-15 -29 -21 -88
-8 -96 15 -9 8 -24 -12 -24 -10 0 -24 8 -30 18 -9 14 -11 14 -7 1 3 -9 0 -22
-6 -28 -8 -8 0 -15 26 -26 20 -8 37 -21 37 -28 0 -8 4 -7 11 3 8 11 9 8 5 -15
-5 -23 -4 -26 4 -15 8 12 10 8 8 -15 -2 -21 1 -29 11 -27 9 2 11 -3 7 -13 -3
-10 -2 -14 5 -10 6 4 9 -1 7 -11 -2 -12 2 -18 11 -16 8 2 11 -3 8 -12 -12 -30
155 -158 183 -141 6 3 10 1 10 -5 0 -7 7 -10 15 -6 8 3 15 2 15 -3 0 -5 9 -11
20 -14 11 -3 18 -1 14 4 -3 5 24 9 61 9 37 0 64 -4 61 -9 -10 -15 38 1 52 18
8 9 11 10 7 4 -3 -7 -1 -13 4 -13 6 0 11 5 11 11 0 5 4 8 9 5 14 -9 42 5 34
17 -4 6 0 8 11 4 10 -4 24 1 36 13 11 11 20 17 20 13 0 -13 118 114 133 144 9
16 14 41 11 54 -4 18 -3 21 4 10 9 -12 12 -10 17 12 6 21 13 27 35 27 41 0 80
50 80 101 0 53 -26 105 -45 89 -8 -7 -15 -7 -19 -1 -3 5 -1 11 6 13 8 3 7 6
-3 10 -10 4 -42 -19 -93 -68z m-731 -7 c0 -7 7 -12 15 -12 20 -1 41 -15 36
-24 -3 -4 6 -20 20 -34 25 -27 26 -28 142 -25 91 2 116 6 114 16 -1 8 2 11 7
8 5 -4 12 -2 16 4 10 17 51 11 70 -10 16 -18 31 -20 128 -20 100 0 113 2 134
22 13 12 23 26 23 31 0 5 -9 -2 -21 -17 -20 -25 -23 -26 -131 -26 -90 0 -115
3 -130 17 -10 9 -18 21 -18 27 0 6 7 0 16 -12 14 -20 23 -22 127 -22 l112 0
28 32 c16 18 26 27 22 21 -9 -18 10 -16 25 2 7 8 9 15 5 15 -4 0 -2 7 5 15 7
8 17 12 24 8 6 -4 16 -8 21 -8 14 0 19 -44 7 -69 -6 -12 -13 -28 -15 -36 -4
-9 -6 -7 -6 7 -1 12 4 25 9 28 6 3 9 21 9 38 l-2 32 -4 -30 c-3 -16 -9 -35
-15 -42 -5 -6 -7 -24 -5 -40 2 -15 1 -37 -4 -48 l-8 -20 -1 20 c-1 18 -2 17
-11 -4 -5 -14 -7 -31 -4 -38 5 -14 -20 -73 -31 -73 -2 0 2 13 11 30 24 47 17
49 -10 1 -28 -49 -30 -55 -12 -45 6 4 4 -2 -7 -14 -10 -12 -22 -19 -26 -17 -4
2 -15 -4 -25 -15 -10 -11 -14 -20 -10 -20 5 0 3 -6 -3 -12 -7 -7 -20 -13 -30
-13 -9 0 -16 -5 -15 -12 2 -8 -4 -10 -14 -6 -10 4 -14 2 -10 -4 4 -6 1 -11 -6
-10 -6 0 -21 -1 -32 -2 -17 -1 -18 -3 -5 -12 13 -9 12 -10 -3 -5 -21 7 -82 -4
-69 -13 6 -3 -30 -6 -78 -6 -50 0 -86 4 -82 9 3 5 -4 7 -14 4 -11 -3 -26 1
-33 9 -7 8 -22 12 -32 10 -12 -3 -17 -1 -12 6 4 6 0 8 -10 4 -10 -4 -16 -2
-14 5 1 6 -4 13 -12 16 -9 3 -11 0 -6 -9 5 -8 4 -11 -1 -6 -5 5 -9 12 -9 15 0
13 -16 32 -27 32 -7 0 -6 -6 2 -15 25 -30 3 -14 -35 26 -22 23 -34 39 -27 35
6 -4 12 -3 12 2 0 15 -26 33 -35 24 -5 -4 -5 -2 -1 5 8 14 -15 67 -24 53 -3
-5 -6 6 -6 25 0 43 -29 78 -58 69 -16 -5 -18 -3 -10 5 6 7 20 13 31 14 14 1
19 6 15 16 -4 10 -1 12 9 6 12 -7 12 -6 -1 11 -22 29 -24 30 -17 11 4 -10 3
-16 -2 -13 -4 3 -7 22 -6 43 2 31 7 37 21 35 16 -3 16 -2 4 15 -12 16 -12 16
0 5 8 -7 15 -18 15 -25z"/>
<path d="M2861 401 c-11 -7 -10 -10 5 -15 11 -3 23 -6 27 -6 4 1 19 -13 33
-30 14 -16 30 -27 36 -24 6 4 9 1 6 -7 -3 -8 1 -28 9 -46 8 -21 13 -74 13
-148 l0 -115 -50 0 -50 0 0 56 c0 47 -3 55 -17 52 -14 -2 -19 -15 -21 -55 l-3
-53 -442 -3 -442 -2 448 -3 447 -2 0 55 c0 30 5 55 10 55 6 0 10 -25 10 -55
l0 -55 61 0 60 0 -2 152 -3 153 -52 52 c-55 55 -60 58 -83 44z"/>
</g>
</svg>
